<svg xmlns="http://www.w3.org/2000/svg" xmlns:xlink="http://www.w3.org/1999/xlink"
	xmlns:lucid="lucid" width="1098.35" height="1748.99">
	<g transform="translate(-432.14655278534315 -32.00855729006495)" lucid:page-tab-id="0_0">
		<path d="M0 0h2000v2000H0z" fill="#fff" rx="100" ry="100"/>
		<path
			d="M453.15 61a8 8 0 0 1 8-8h836.75a8 8 0 0 1 8 8v60.3a8 8 0 0 1-8 8H461.15a8 8 0 0 1-8-8z"
			stroke="#000" stroke-opacity="0" stroke-width="2" fill="#fff" fill-opacity="0" />
		<use xlink:href="#a"
			transform="matrix(1,0,0,1,457.14655278534315,57.00855729006495) translate(310.2501234567901 41.08444444444444)" />
		<use xlink:href="#b"
			transform="matrix(1,0,0,1,457.14655278534315,57.00855729006495) translate(406.2525925925926 41.08444444444444)" />
		<use xlink:href="#c"
			transform="matrix(1,0,0,1,457.14655278534315,57.00855729006495) translate(473.11925925925925 41.08444444444444)" />
		<path d="M709.44 110.4h347.9M709.47 110.4h-1.03M1057.3 110.4h1.03" stroke="#a9afb8"
			stroke-width="2" fill="none" />
		<path
			d="M453.15 119.73a8 8 0 0 1 8-8h837.7a8 8 0 0 1 8 8v2.85a8 8 0 0 1-8 8h-837.7a8 8 0 0 1-8-8z"
			stroke="#000" stroke-opacity="0" stroke-width="2" fill="#fff" fill-opacity="0" />
		<use xlink:href="#d"
			transform="matrix(1,0,0,1,457.1465527853436,115.73283593529744) translate(302.09132716049385 14.917037037037037)" />
		<use xlink:href="#e"
			transform="matrix(1,0,0,1,457.1465527853436,115.73283593529744) translate(353.9287757201646 14.917037037037037)" />
		<use xlink:href="#f"
			transform="matrix(1,0,0,1,457.1465527853436,115.73283593529744) translate(366.37826131687245 14.917037037037037)" />
		<use xlink:href="#g"
			transform="matrix(1,0,0,1,457.1465527853436,115.73283593529744) translate(402.8344341563786 14.917037037037037)" />
		<use xlink:href="#h"
			transform="matrix(1,0,0,1,457.1465527853436,115.73283593529744) translate(432.57723251028807 14.917037037037037)" />
		<use xlink:href="#i"
			transform="matrix(1,0,0,1,457.1465527853436,115.73283593529744) translate(491.12805555555553 14.917037037037037)" />
		<path d="M560 388a8 8 0 0 1 8-8h144a8 8 0 0 1 8 8v44a8 8 0 0 1-8 8H568a8 8 0 0 1-8-8z"
			stroke="#3a414a" stroke-width="2" fill="#fff" />
		<use xlink:href="#j" transform="matrix(1,0,0,1,572,392) translate(-1.0250000000000057 21.6)" />
		<path d="M1040 388a8 8 0 0 1 8-8h144a8 8 0 0 1 8 8v44a8 8 0 0 1-8 8h-144a8 8 0 0 1-8-8z"
			stroke="#3a414a" stroke-width="2" fill="#fff" />
		<use xlink:href="#j"
			transform="matrix(1,0,0,1,1052,392) translate(-1.0250000000000057 21.6)" />
		<path
			d="M802.06 207.73A6.15 6.15 0 0 1 808 200h144a6.15 6.15 0 0 1 5.94 7.73l-6.55 24.54a10.4 10.4 0 0 1-10.07 7.73H818.67a10.4 10.4 0 0 1-10.06-7.73z"
			stroke="#3a414a" stroke-width="2" fill="#fff" />
		<use xlink:href="#k"
			transform="matrix(1,0,0,1,805.0000000000002,205) translate(40.574999999999996 18.6)" />
		<path
			d="M881 318.04l-.16 2-.47 1.98-.78 1.88-1.08 1.74-1.32 1.56-1.56 1.32-1.74 1.07-1.88.77-2 .47-1.98.16h-215.5l-1.77.14-1.68.4-1.6.66-1.48.9-1.3 1.12-1.13 1.32-.9 1.47-.67 1.6-.4 1.68-.14 1.76v18.46h-2v-18.54l.14-2 .48-1.98.78-1.88 1.07-1.74 1.32-1.56 1.54-1.32 1.74-1.07 1.9-.77 1.97-.47 2-.16h215.5l1.77-.14 1.68-.4 1.6-.66 1.46-.9 1.32-1.12 1.12-1.32.9-1.47.66-1.6.4-1.68.14-1.76V301.1h2zm0-60.14h-2V242h2z"
			stroke="#3a414a" stroke-width=".05" fill="#3a414a" />
		<path d="M881 242.03h-2V241h2z" fill="#3a414a" />
		<path d="M881.02 242.05H879v-1.08H881zm-2-1.03v.98H881v-.97z" stroke="#3a414a"
			stroke-width=".05" fill="#3a414a" />
		<path d="M640.5 375.76l-4.65-14.26h9.27z" fill="#3a414a" />
		<path
			d="M640.5 379l-6.02-18.5h12.02zm-3.27-16.5l3.26 10.03 3.25-10.03zM881 317.96l.14 1.76.4 1.68.66 1.6.9 1.46 1.12 1.32 1.32 1.12 1.47.9 1.6.66 1.68.4 1.76.14h216l2 .16 1.98.47 1.88.78 1.74 1.08 1.55 1.32 1.32 1.56 1.07 1.74.77 1.88.47 2 .16 1.98v18.54h-2v-18.46l-.14-1.76-.4-1.68-.66-1.6-.9-1.46-1.12-1.32-1.32-1.12-1.47-.9-1.6-.66-1.68-.4-1.76-.14h-216l-2-.16-1.98-.47-1.88-.78-1.74-1.08-1.56-1.32-1.32-1.56-1.07-1.74-.77-1.88-.47-2-.16-1.98V301.1h2zm0-60.06h-2V242h2z"
			stroke="#3a414a" stroke-width=".05" fill="#3a414a" />
		<path d="M881 242.03h-2V241h2z" fill="#3a414a" />
		<path d="M881.02 242.05H879v-1.08H881zm-2-1.03v.98H881v-.97z" stroke="#3a414a"
			stroke-width=".05" fill="#3a414a" />
		<path d="M1120 375.76l-4.63-14.26h9.27z" fill="#3a414a" />
		<path d="M1120 379l-6-18.5h12zm-3.26-16.5l3.26 10.03 3.26-10.03z" stroke="#3a414a"
			stroke-width=".05" fill="#3a414a" />
		<use xlink:href="#l"
			transform="matrix(1,0,0,1,835.5499579768182,257.89632932473273) translate(0.030000000000001137 14.4)" />
		<use xlink:href="#m"
			transform="matrix(1,0,0,1,835.5499579768182,257.89632932473273) translate(67.93 14.4)" />
		<use xlink:href="#n"
			transform="matrix(1,0,0,1,835.5499579768182,257.89632932473273) translate(0.005000000000002558 36)" />
		<use xlink:href="#o"
			transform="matrix(1,0,0,1,835.5499579768182,257.89632932473273) translate(44.005 36)" />
		<path
			d="M560 528a8 8 0 0 1 8-8h144a8 8 0 0 1 8 8v52c-26.72-10.02-43.36-10.02-53.44-10.02-16 0-37.28 10.02-53.28 10.02-9.92 0-26.72 0-53.28-10.02z"
			stroke="#3a414a" stroke-width="2" fill="#fff" />
		<use xlink:href="#p" transform="matrix(1,0,0,1,565,525) translate(5.224999999999994 23.6)" />
		<use xlink:href="#q" transform="matrix(1,0,0,1,565,525) translate(82.025 23.6)" />
		<path
			d="M1040 528a8 8 0 0 1 8-8h144a8 8 0 0 1 8 8v52c-26.72-10.02-43.36-10.02-53.44-10.02-16 0-37.28 10.02-53.28 10.02-9.92 0-26.72 0-53.28-10.02z"
			stroke="#3a414a" stroke-width="2" fill="#fff" />
		<use xlink:href="#p" transform="matrix(1,0,0,1,1045,525) translate(5.224999999999994 23.6)" />
		<use xlink:href="#q" transform="matrix(1,0,0,1,1045,525) translate(82.025 23.6)" />
		<path d="M641 500.5h-2v-13.96h2zm0-35.56h-2V442h2z" stroke="#3a414a" stroke-width=".05"
			fill="#3a414a" />
		<path d="M641 442.03h-2V441h2z" fill="#3a414a" />
		<path d="M641.02 442.05H639v-1.07H641zm-2-1.03v.98H641v-.98z" stroke="#3a414a"
			stroke-width=".05" fill="#3a414a" />
		<path d="M640 515.76l-4.63-14.26h9.26z" fill="#3a414a" />
		<path d="M640 519l-6-18.5h12zm-3.26-16.5l3.26 10.03 3.26-10.03z" stroke="#3a414a"
			stroke-width=".05" fill="#3a414a" />
		<use xlink:href="#r"
			transform="matrix(1,0,0,1,605.35,464.94294727447) translate(0.005000000000002558 14.4)" />
		<path d="M1121 500.5h-2v-9.7h2zm0-31.3h-2V442h2z" stroke="#3a414a" stroke-width=".05"
			fill="#3a414a" />
		<path d="M1121 442.03h-2V441h2z" fill="#3a414a" />
		<path d="M1121.03 442.05h-2.06v-1.07h2.06zm-2-1.03v.98h1.94v-.98z" stroke="#3a414a"
			stroke-width=".05" fill="#3a414a" />
		<path d="M1120 515.76l-4.63-14.26h9.27z" fill="#3a414a" />
		<path d="M1120 519l-6-18.5h12zm-3.26-16.5l3.26 10.03 3.26-10.03z" stroke="#3a414a"
			stroke-width=".05" fill="#3a414a" />
		<use xlink:href="#r"
			transform="matrix(1,0,0,1,1085.35,469.2) translate(0.005000000000002558 14.4)" />
		<path
			d="M480 680c13.28 9.96 21.68 9.96 26.64 9.96 8 0 18.64-9.96 26.64-9.96 5.04 0 13.36 0 26.72 9.96V740c-13.36-10.02-21.68-10.02-26.72-10.02-8 0-18.64 10.02-26.64 10.02-4.96 0-13.36 0-26.64-10.02z"
			stroke="#3a414a" stroke-width="2" fill="#fff" />
		<use xlink:href="#s" transform="matrix(1,0,0,1,485,685) translate(3.0749999999999993 28.6)" />
		<use xlink:href="#t" transform="matrix(1,0,0,1,485,685) translate(38.075 28.6)" />
		<path
			d="M1140 680c13.28 9.96 21.68 9.96 26.64 9.96 8 0 18.64-9.96 26.64-9.96 5.04 0 13.36 0 26.72 9.96V740c-13.36-10.02-21.68-10.02-26.72-10.02-8 0-18.64 10.02-26.64 10.02-4.96 0-13.36 0-26.64-10.02z"
			stroke="#3a414a" stroke-width="2" fill="#fff" />
		<use xlink:href="#s" transform="matrix(1,0,0,1,1145,685) translate(3.0749999999999993 28.6)" />
		<use xlink:href="#t" transform="matrix(1,0,0,1,1145,685) translate(38.075 28.6)" />
		<path
			d="M1020 680c13.28 9.96 21.68 9.96 26.64 9.96 8 0 18.64-9.96 26.64-9.96 5.04 0 13.36 0 26.72 9.96V740c-13.36-10.02-21.68-10.02-26.72-10.02-8 0-18.64 10.02-26.64 10.02-4.96 0-13.36 0-26.64-10.02z"
			stroke="#3a414a" stroke-width="2" fill="#fff" />
		<use xlink:href="#s" transform="matrix(1,0,0,1,1025,685) translate(3.0749999999999993 28.6)" />
		<use xlink:href="#t" transform="matrix(1,0,0,1,1025,685) translate(38.075 28.6)" />
		<path
			d="M720 680c13.28 9.96 21.68 9.96 26.64 9.96 8 0 18.64-9.96 26.64-9.96 5.04 0 13.36 0 26.72 9.96V740c-13.36-10.02-21.68-10.02-26.72-10.02-8 0-18.64 10.02-26.64 10.02-4.96 0-13.36 0-26.64-10.02z"
			stroke="#3a414a" stroke-width="2" fill="#fff" />
		<use xlink:href="#s"
			transform="matrix(1,0,0,1,725.0000000000005,685) translate(3.0749999999999993 28.6)" />
		<use xlink:href="#t"
			transform="matrix(1,0,0,1,725.0000000000005,685) translate(38.075 28.6)" />
		<path
			d="M600 680c13.28 9.96 21.68 9.96 26.64 9.96 8 0 18.64-9.96 26.64-9.96 5.04 0 13.36 0 26.72 9.96V740c-13.36-10.02-21.68-10.02-26.72-10.02-8 0-18.64 10.02-26.64 10.02-4.96 0-13.36 0-26.64-10.02z"
			stroke="#3a414a" stroke-width="2" fill="#fff" />
		<use xlink:href="#s"
			transform="matrix(1,0,0,1,605.0000000000002,685) translate(3.0749999999999993 28.6)" />
		<use xlink:href="#t"
			transform="matrix(1,0,0,1,605.0000000000002,685) translate(38.075 28.6)" />
		<path
			d="M641 632.18l-.16 2-.47 1.98-.78 1.88-1.08 1.74-1.32 1.56-1.56 1.32-1.74 1.07-1.88.78-2 .48-1.98.16h-96l-1.76.14-1.68.4-1.6.66-1.46.9-1.32 1.13-1.12 1.3-.9 1.48-.66 1.6-.4 1.67-.14 1.76v9.46h-2v-9.54l.16-2 .47-1.98.78-1.88 1.08-1.74 1.32-1.55 1.56-1.33 1.74-1.07 1.88-.78 2-.47 1.98-.16h96l1.76-.14 1.68-.4 1.6-.66 1.46-.9 1.32-1.12 1.12-1.32.9-1.47.66-1.6.4-1.67.14-1.76v-11.26h2zm0-32.94h-2v-22.5h2z"
			stroke="#3a414a" stroke-width=".05" fill="#3a414a" />
		<path d="M641 576.76h-2v-.8l2-.46z" fill="#3a414a" />
		<path d="M641.02 576.78H639v-.84l2.04-.47zm-2-.8v.75H641v-1.2z" stroke="#3a414a"
			stroke-width=".05" fill="#3a414a" />
		<path d="M520 680.9l-4.63-14.26h9.26z" fill="#3a414a" />
		<path
			d="M520 684.14l-6-18.5h12zm-3.26-16.5l3.26 10.03 3.26-10.03zM641 665.64h-2v-44.8h2zm0-66.4h-2v-22.5h2z"
			stroke="#3a414a" stroke-width=".05" fill="#3a414a" />
		<path d="M641 576.76h-2v-.8l2-.46z" fill="#3a414a" />
		<path d="M641.02 576.78H639v-.84l2.04-.47zm-2-.8v.75H641v-1.2z" stroke="#3a414a"
			stroke-width=".05" fill="#3a414a" />
		<path d="M640 680.9l-4.63-14.26h9.26z" fill="#3a414a" />
		<path
			d="M640 684.14l-6-18.5h12zm-3.26-16.5l3.26 10.03 3.26-10.03zM641 632.1l.14 1.76.4 1.68.66 1.6.9 1.46 1.12 1.32 1.32 1.12 1.47.9 1.6.66 1.68.4 1.76.14h96l2 .16 1.98.47 1.88.78 1.74 1.07 1.56 1.33 1.32 1.55 1.07 1.74.77 1.88.47 2 .16 1.98v9.54h-2v-9.46l-.14-1.76-.4-1.68-.66-1.6-.9-1.46-1.12-1.3-1.32-1.14-1.47-.9-1.6-.66-1.68-.4-1.76-.14h-96l-2-.16-1.98-.47-1.88-.77-1.74-1.07-1.56-1.32-1.32-1.56-1.07-1.74-.77-1.88-.47-2-.16-1.98v-11.34h2zm0-32.86h-2v-22.5h2z"
			stroke="#3a414a" stroke-width=".05" fill="#3a414a" />
		<path d="M641 576.76h-2v-.8l2-.46z" fill="#3a414a" />
		<path d="M641.02 576.78H639v-.84l2.04-.47zm-2-.8v.75H641v-1.2z" stroke="#3a414a"
			stroke-width=".05" fill="#3a414a" />
		<path d="M760 680.9l-4.63-14.26h9.26z" fill="#3a414a" />
		<path d="M760 684.14l-6-18.5h12zm-3.26-16.5l3.26 10.03 3.26-10.03z" stroke="#3a414a"
			stroke-width=".05" fill="#3a414a" />
		<use xlink:href="#u"
			transform="matrix(1,0,0,1,604.5500005134547,599.2371848773256) translate(0.005000000000002558 14.4)" />
		<path
			d="M1121 632.18l-.16 2-.47 1.98-.78 1.88-1.08 1.74-1.33 1.56-1.56 1.32-1.74 1.07-1.88.78-2 .48-1.98.16h-36l-1.76.14-1.68.4-1.6.66-1.46.9-1.32 1.13-1.12 1.3-.9 1.48-.66 1.6-.4 1.67-.14 1.76v9.46h-2v-9.54l.16-2 .47-1.98.78-1.88 1.08-1.74 1.33-1.55 1.56-1.33 1.74-1.07 1.88-.78 2-.47 1.98-.16h36l1.76-.14 1.68-.4 1.6-.66 1.46-.9 1.32-1.12 1.12-1.32.9-1.47.66-1.6.4-1.67.14-1.76v-7.68h2zm0-29.36h-2v-26.1h2z"
			stroke="#3a414a" stroke-width=".05" fill="#3a414a" />
		<path d="M1121 576.76h-2v-.8l2-.46z" fill="#3a414a" />
		<path d="M1121.03 576.78h-2.06v-.84l2.06-.47zm-2-.8v.75h1.94v-1.2z" stroke="#3a414a"
			stroke-width=".05" fill="#3a414a" />
		<path d="M1060 680.9l-4.63-14.26h9.27z" fill="#3a414a" />
		<path
			d="M1060 684.14l-6-18.5h12zm-3.26-16.5l3.26 10.03 3.26-10.03zM1121 632.1l.14 1.76.4 1.68.66 1.6.9 1.46 1.12 1.32 1.32 1.12 1.47.9 1.6.66 1.68.4 1.76.14h36l2 .16 1.98.47 1.88.78 1.74 1.07 1.55 1.33 1.32 1.55 1.07 1.74.77 1.88.47 2 .16 1.98v9.54h-2v-9.46l-.14-1.76-.4-1.68-.66-1.6-.9-1.46-1.12-1.3-1.32-1.14-1.47-.9-1.6-.66-1.68-.4-1.76-.14h-36l-2-.16-1.98-.47-1.88-.77-1.74-1.07-1.55-1.32-1.32-1.56-1.07-1.74-.77-1.88-.47-2-.16-1.98v-7.76h2zm0-29.28h-2v-26.1h2z"
			stroke="#3a414a" stroke-width=".05" fill="#3a414a" />
		<path d="M1121 576.76h-2v-.8l2-.46z" fill="#3a414a" />
		<path d="M1121.03 576.78h-2.06v-.84l2.06-.47zm-2-.8v.75h1.94v-1.2z" stroke="#3a414a"
			stroke-width=".05" fill="#3a414a" />
		<path d="M1180 680.9l-4.63-14.26h9.27z" fill="#3a414a" />
		<path d="M1180 684.14l-6-18.5h12zm-3.26-16.5l3.26 10.03 3.26-10.03z" stroke="#3a414a"
			stroke-width=".05" fill="#3a414a" />
		<use xlink:href="#u"
			transform="matrix(1,0,0,1,1084.550000513455,602.8186164910868) translate(0.005000000000002558 14.4)" />
		<path d="M480 848a8 8 0 0 1 8-8h64a8 8 0 0 1 8 8v24a8 8 0 0 1-8 8h-64a8 8 0 0 1-8-8z"
			stroke="#3a414a" stroke-width="2" fill="#fff" />
		<use xlink:href="#v" transform="matrix(1,0,0,1,492,852) translate(-5.125 14.4)" />
		<path d="M600 848a8 8 0 0 1 8-8h64a8 8 0 0 1 8 8v24a8 8 0 0 1-8 8h-64a8 8 0 0 1-8-8z"
			stroke="#3a414a" stroke-width="2" fill="#fff" />
		<use xlink:href="#v" transform="matrix(1,0,0,1,612,852) translate(-5.125 14.4)" />
		<path d="M720 848a8 8 0 0 1 8-8h64a8 8 0 0 1 8 8v24a8 8 0 0 1-8 8h-64a8 8 0 0 1-8-8z"
			stroke="#3a414a" stroke-width="2" fill="#fff" />
		<use xlink:href="#v" transform="matrix(1,0,0,1,732,852) translate(-5.125 14.4)" />
		<path d="M1020 848a8 8 0 0 1 8-8h64a8 8 0 0 1 8 8v24a8 8 0 0 1-8 8h-64a8 8 0 0 1-8-8z"
			stroke="#3a414a" stroke-width="2" fill="#fff" />
		<use xlink:href="#v" transform="matrix(1,0,0,1,1032,852) translate(-5.125 14.4)" />
		<path d="M1140 848a8 8 0 0 1 8-8h64a8 8 0 0 1 8 8v24a8 8 0 0 1-8 8h-64a8 8 0 0 1-8-8z"
			stroke="#3a414a" stroke-width="2" fill="#fff" />
		<use xlink:href="#v" transform="matrix(1,0,0,1,1152,852) translate(-5.125 14.4)" />
		<path d="M521 820.5h-2v-22.3h2zm0-43.9h-2v-39.8h2z" stroke="#3a414a" stroke-width=".05"
			fill="#3a414a" />
		<path d="M521 736.82h-2v-.57l2-.9z" fill="#3a414a" />
		<path d="M521.02 736.84H519v-.6l2.04-.94zm-2-.58v.53H521v-1.42z" stroke="#3a414a"
			stroke-width=".05" fill="#3a414a" />
		<path d="M520 835.76l-4.63-14.26h9.26z" fill="#3a414a" />
		<path d="M520 839l-6-18.5h12zm-3.26-16.5l3.26 10.03 3.26-10.03z" stroke="#3a414a"
			stroke-width=".05" fill="#3a414a" />
		<use xlink:href="#w"
			transform="matrix(1,0,0,1,471.85,776.5964300423942) translate(0.005000000000002558 14.4)" />
		<use xlink:href="#x"
			transform="matrix(1,0,0,1,471.85,776.5964300423942) translate(75.305 14.4)" />
		<path d="M641 820.5h-2v-22.3h2zm0-43.9h-2v-39.8h2z" stroke="#3a414a" stroke-width=".05"
			fill="#3a414a" />
		<path d="M641 736.82h-2v-.57l2-.9z" fill="#3a414a" />
		<path d="M641.02 736.84H639v-.6l2.04-.94zm-2-.58v.53H641v-1.42z" stroke="#3a414a"
			stroke-width=".05" fill="#3a414a" />
		<path d="M640 835.76l-4.63-14.26h9.26z" fill="#3a414a" />
		<path d="M640 839l-6-18.5h12zm-3.26-16.5l3.26 10.03 3.26-10.03z" stroke="#3a414a"
			stroke-width=".05" fill="#3a414a" />
		<use xlink:href="#w"
			transform="matrix(1,0,0,1,591.8500000000003,776.5964300423942) translate(0.005000000000002558 14.4)" />
		<use xlink:href="#x"
			transform="matrix(1,0,0,1,591.8500000000003,776.5964300423942) translate(75.305 14.4)" />
		<path d="M761 820.5h-2v-22.3h2zm0-43.9h-2v-39.8h2z" stroke="#3a414a" stroke-width=".05"
			fill="#3a414a" />
		<path d="M761 736.82h-2v-.57l2-.9z" fill="#3a414a" />
		<path d="M761.02 736.84H759v-.6l2.04-.94zm-2-.58v.53H761v-1.42z" stroke="#3a414a"
			stroke-width=".05" fill="#3a414a" />
		<path d="M760 835.76l-4.63-14.26h9.26z" fill="#3a414a" />
		<path d="M760 839l-6-18.5h12zm-3.26-16.5l3.26 10.03 3.26-10.03z" stroke="#3a414a"
			stroke-width=".05" fill="#3a414a" />
		<use xlink:href="#w"
			transform="matrix(1,0,0,1,711.8500000000005,776.5964300423942) translate(0.005000000000002558 14.4)" />
		<use xlink:href="#x"
			transform="matrix(1,0,0,1,711.8500000000005,776.5964300423942) translate(75.305 14.4)" />
		<path d="M1061 820.5h-2v-22.3h2zm0-43.9h-2v-39.8h2z" stroke="#3a414a" stroke-width=".05"
			fill="#3a414a" />
		<path d="M1061 736.82h-2v-.57l2-.9z" fill="#3a414a" />
		<path d="M1061.03 736.84h-2.06v-.6l2.06-.94zm-2-.58v.53h1.94v-1.42z" stroke="#3a414a"
			stroke-width=".05" fill="#3a414a" />
		<path d="M1060 835.76l-4.63-14.26h9.27z" fill="#3a414a" />
		<path d="M1060 839l-6-18.5h12zm-3.26-16.5l3.26 10.03 3.26-10.03z" stroke="#3a414a"
			stroke-width=".05" fill="#3a414a" />
		<use xlink:href="#w"
			transform="matrix(1,0,0,1,1011.85,776.5964300423942) translate(0.005000000000002558 14.4)" />
		<use xlink:href="#x"
			transform="matrix(1,0,0,1,1011.85,776.5964300423942) translate(75.305 14.4)" />
		<path d="M1181 820.5h-2v-29.3h2zm0-50.9h-2v-32.8h2z" stroke="#3a414a" stroke-width=".05"
			fill="#3a414a" />
		<path d="M1181 736.82h-2v-.57l2-.9z" fill="#3a414a" />
		<path d="M1181.03 736.84h-2.06v-.6l2.06-.94zm-2-.58v.53h1.94v-1.42z" stroke="#3a414a"
			stroke-width=".05" fill="#3a414a" />
		<path d="M1180 835.76l-4.63-14.26h9.27z" fill="#3a414a" />
		<path d="M1180 839l-6-18.5h12zm-3.26-16.5l3.26 10.03 3.26-10.03z" stroke="#3a414a"
			stroke-width=".05" fill="#3a414a" />
		<use xlink:href="#w"
			transform="matrix(1,0,0,1,1131.85,769.5914926741814) translate(0.005000000000002558 14.4)" />
		<use xlink:href="#x"
			transform="matrix(1,0,0,1,1131.85,769.5914926741814) translate(75.305 14.4)" />
		<path
			d="M960 1148c0 6.63-26.86 12-60 12s-60-5.37-60-12v-96c0-6.63 26.86-12 60-12s60 5.37 60 12z"
			stroke="#3a414a" stroke-width="2" fill="#fff" />
		<path d="M960 1052c0 6.63-26.86 12-60 12s-60-5.37-60-12" stroke="#3a414a" stroke-width="2"
			fill="none" />
		<use xlink:href="#y" transform="matrix(1,0,0,1,845,1069) translate(14.574999999999996 35.8)" />
		<use xlink:href="#z" transform="matrix(1,0,0,1,845,1069) translate(28 57.4)" />
		<path d="M520 882v23.86a12 12 0 0 0 12 12h356a12 12 0 0 1 12 12v90.64" stroke="#3a414a"
			stroke-width="2" fill="none" />
		<path d="M521 882.03h-2V881h2z" stroke="#3a414a" stroke-width=".05" fill="#3a414a" />
		<path d="M900 1035.76l-4.63-14.26h9.26z" stroke="#3a414a" stroke-width="2" fill="#3a414a" />
		<path d="M640 882v23.86a12 12 0 0 0 12 12h236a12 12 0 0 1 12 12v90.64" stroke="#3a414a"
			stroke-width="2" fill="none" />
		<path d="M641 882.03h-2V881h2z" stroke="#3a414a" stroke-width=".05" fill="#3a414a" />
		<path d="M900 1035.76l-4.63-14.26h9.26z" stroke="#3a414a" stroke-width="2" fill="#3a414a" />
		<path d="M760 882v23.86a12 12 0 0 0 12 12h116a12 12 0 0 1 12 12v90.64" stroke="#3a414a"
			stroke-width="2" fill="none" />
		<path d="M761 882.03h-2V881h2z" stroke="#3a414a" stroke-width=".05" fill="#3a414a" />
		<path d="M900 1035.76l-4.63-14.26h9.26z" stroke="#3a414a" stroke-width="2" fill="#3a414a" />
		<path d="M1060 882v23.86a12 12 0 0 1-12 12H912a12 12 0 0 0-12 12v90.64" stroke="#3a414a"
			stroke-width="2" fill="none" />
		<path d="M1061 882.03h-2V881h2z" stroke="#3a414a" stroke-width=".05" fill="#3a414a" />
		<path d="M900 1035.76l-4.63-14.26h9.26z" stroke="#3a414a" stroke-width="2" fill="#3a414a" />
		<path d="M1180 882v23.86a12 12 0 0 1-12 12H912a12 12 0 0 0-12 12v90.64" stroke="#3a414a"
			stroke-width="2" fill="none" />
		<path d="M1181 882.03h-2V881h2z" stroke="#3a414a" stroke-width=".05" fill="#3a414a" />
		<path d="M900 1035.76l-4.63-14.26h9.26z" stroke="#3a414a" stroke-width="2" fill="#3a414a" />
		<path d="M550 1288a8 8 0 0 1 8-8h84a8 8 0 0 1 8 8v24a8 8 0 0 1-8 8h-84a8 8 0 0 1-8-8z"
			stroke="#3a414a" stroke-width="2" fill="#fff" />
		<use xlink:href="#A"
			transform="matrix(1,0,0,1,562.0000000000005,1292) translate(-3.4250000000000043 14.4)" />
		<path d="M700 1288a8 8 0 0 1 8-8h84a8 8 0 0 1 8 8v24a8 8 0 0 1-8 8h-84a8 8 0 0 1-8-8z"
			stroke="#3a414a" stroke-width="2" fill="#fff" />
		<use xlink:href="#A"
			transform="matrix(1,0,0,1,712.0000000000002,1292) translate(-3.4250000000000043 14.4)" />
		<path d="M1150 1288a8 8 0 0 1 8-8h84a8 8 0 0 1 8 8v24a8 8 0 0 1-8 8h-84a8 8 0 0 1-8-8z"
			stroke="#3a414a" stroke-width="2" fill="#fff" />
		<use xlink:href="#A"
			transform="matrix(1,0,0,1,1161.9999999999995,1292) translate(-3.4250000000000043 14.4)" />
		<path d="M1000 1288a8 8 0 0 1 8-8h84a8 8 0 0 1 8 8v24a8 8 0 0 1-8 8h-84a8 8 0 0 1-8-8z"
			stroke="#3a414a" stroke-width="2" fill="#fff" />
		<use xlink:href="#A"
			transform="matrix(1,0,0,1,1011.9999999999998,1292) translate(-3.4250000000000043 14.4)" />
		<path d="M850 1288a8 8 0 0 1 8-8h84a8 8 0 0 1 8 8v24a8 8 0 0 1-8 8h-84a8 8 0 0 1-8-8z"
			stroke="#3a414a" stroke-width="2" fill="#fff" />
		<use xlink:href="#A"
			transform="matrix(1,0,0,1,862,1292) translate(-3.4250000000000043 14.4)" />
		<path
			d="M1270 1277.56a8 8 0 0 1 8-8h224a8 8 0 0 1 8 8v53.8a8 8 0 0 1-8 8h-224a8 8 0 0 1-8-8z"
			stroke="#000" stroke-opacity="0" fill="#fff" fill-opacity="0" />
		<use xlink:href="#B"
			transform="matrix(1,0,0,1,1275,1274.5558420279544) translate(41.85648148148148 24.57777777777778)" />
		<use xlink:href="#C"
			transform="matrix(1,0,0,1,1275,1274.5558420279544) translate(0.7191358024691539 40.84444444444445)" />
		<use xlink:href="#D"
			transform="matrix(1,0,0,1,1275,1274.5558420279544) translate(35.28580246913582 40.84444444444445)" />
		<use xlink:href="#E"
			transform="matrix(1,0,0,1,1275,1274.5558420279544) translate(104.4567901234568 40.84444444444445)" />
		<use xlink:href="#F"
			transform="matrix(1,0,0,1,1275,1274.5558420279544) translate(162.3314814814815 40.84444444444445)" />
		<use xlink:href="#G"
			transform="matrix(1,0,0,1,1275,1274.5558420279544) translate(176.60246913580244 40.84444444444445)" />
		<a xlink:href="http://App.java" target="_blank"
			transform="matrix(1,0,0,1,1275,1274.5558420279544)">
			<path class="lucid-link lucid-hotspot lucid-overlay-hotspot" fill-opacity="0"
				d="M176.6 30h52.68v16.27H176.6z" />
		</a>
		<path
			d="M901 1232.5l-.16 2-.47 1.97-.78 1.9-1.08 1.73-1.32 1.55-1.56 1.33-1.74 1.06-1.88.78-2 .48-1.98.16h-276l-1.76.13-1.68.4-1.6.66-1.46.9-1.32 1.12-1.12 1.3-.9 1.48-.66 1.6-.4 1.68-.14 1.75v21.5h-2v-21.58l.16-2 .47-1.98.78-1.9 1.08-1.73 1.32-1.54 1.56-1.32 1.74-1.07 1.88-.78 2-.5 1.98-.14h276l1.76-.14 1.68-.4 1.6-.67 1.46-.9 1.32-1.12 1.12-1.3.9-1.48.66-1.6.4-1.67.14-1.76v-11.9h2zm0-33.6h-2v-36.08h2z"
			stroke="#3a414a" stroke-width=".05" fill="#3a414a" />
		<path d="M601 1279h-2v-1.03h2z" fill="#3a414a" />
		<path
			d="M601.02 1279.03H599v-1.08H601zm-2-1.03v.97H601v-.97zM911.04 1179.67l-1.72 1.02-9.32-15.77-9.32 15.76-1.72-1.03L900 1161z"
			stroke="#3a414a" stroke-width=".05" fill="#3a414a" />
		<path
			d="M901 1232.5l-.16 2-.47 1.97-.78 1.9-1.08 1.73-1.32 1.55-1.56 1.33-1.74 1.06-1.88.78-2 .48-1.98.16h-126l-1.76.13-1.68.4-1.6.66-1.46.9-1.32 1.12-1.12 1.3-.9 1.48-.66 1.6-.4 1.68-.14 1.75v21.5h-2v-21.58l.16-2 .47-1.98.78-1.9 1.08-1.73 1.32-1.54 1.56-1.32 1.74-1.07 1.88-.78 2-.5 1.98-.14h126l1.76-.14 1.68-.4 1.6-.67 1.46-.9 1.32-1.12 1.12-1.3.9-1.48.66-1.6.4-1.67.14-1.76v-11.9h2zm0-33.6h-2v-36.08h2z"
			stroke="#3a414a" stroke-width=".05" fill="#3a414a" />
		<path d="M751 1279h-2v-1.03h2z" fill="#3a414a" />
		<path
			d="M751.02 1279.03H749v-1.08H751zm-2-1.03v.97H751v-.97zM911.04 1179.67l-1.72 1.02-9.32-15.77-9.32 15.76-1.72-1.03L900 1161z"
			stroke="#3a414a" stroke-width=".05" fill="#3a414a" />
		<path d="M901 1278h-2v-57.48h2zm0-79.1h-2v-36.08h2z" stroke="#3a414a" stroke-width=".05"
			fill="#3a414a" />
		<path d="M901 1279h-2v-1.03h2z" fill="#3a414a" />
		<path
			d="M901.02 1279.03H899v-1.08H901zm-2-1.03v.97H901v-.97zM911.04 1179.67l-1.72 1.02-9.32-15.77-9.32 15.76-1.72-1.03L900 1161z"
			stroke="#3a414a" stroke-width=".05" fill="#3a414a" />
		<path
			d="M901 1232.42l.14 1.76.4 1.67.66 1.6.9 1.47 1.12 1.3 1.32 1.13 1.47.9 1.6.66 1.68.42 1.76.14h126l2 .15 1.98.5 1.88.77 1.74 1.07 1.55 1.32 1.32 1.55 1.07 1.75.77 1.9.47 1.97.16 2V1278h-2v-21.5l-.14-1.76-.4-1.68-.66-1.6-.9-1.47-1.12-1.32-1.32-1.12-1.47-.9-1.6-.66-1.68-.4-1.76-.14h-126l-2-.16-1.98-.48-1.88-.78-1.74-1.06-1.56-1.33-1.32-1.55-1.07-1.74-.77-1.9-.47-1.97-.16-2v-11.98h2zm0-33.5h-2v-36.1h2z"
			stroke="#3a414a" stroke-width=".05" fill="#3a414a" />
		<path d="M1051 1279h-2v-1.03h2z" fill="#3a414a" />
		<path
			d="M1051.03 1279.03h-2.06v-1.08h2.06zm-2-1.03v.97h1.94v-.97zM911.04 1179.67l-1.72 1.02-9.32-15.77-9.32 15.76-1.72-1.03L900 1161z"
			stroke="#3a414a" stroke-width=".05" fill="#3a414a" />
		<path
			d="M901 1232.42l.14 1.76.4 1.67.66 1.6.9 1.47 1.12 1.3 1.32 1.13 1.47.9 1.6.66 1.68.42 1.76.14h276l2 .15 1.98.5 1.88.77 1.74 1.07 1.55 1.32 1.32 1.55 1.07 1.75.77 1.9.47 1.97.16 2V1278h-2v-21.5l-.14-1.76-.4-1.68-.66-1.6-.9-1.47-1.12-1.32-1.32-1.12-1.47-.9-1.6-.66-1.68-.4-1.76-.14h-276l-2-.16-1.98-.48-1.88-.78-1.74-1.06-1.56-1.33-1.32-1.55-1.07-1.74-.77-1.9-.47-1.97-.16-2v-11.98h2zm0-33.5h-2v-36.1h2z"
			stroke="#3a414a" stroke-width=".05" fill="#3a414a" />
		<path d="M1201 1279h-2v-1.03h2z" fill="#3a414a" />
		<path
			d="M1201.03 1279.03h-2.06v-1.08h2.06zm-2-1.03v.97h1.94v-.97zM911.04 1179.67l-1.72 1.02-9.32-15.77-9.32 15.76-1.72-1.03L900 1161z"
			stroke="#3a414a" stroke-width=".05" fill="#3a414a" />
		<use xlink:href="#H"
			transform="matrix(1,0,0,1,834.6,1198.914798693699) translate(0.0049999999999954525 14.4)" />
		<use xlink:href="#I"
			transform="matrix(1,0,0,1,834.6,1198.914798693699) translate(56.955 14.4)" />
		<use xlink:href="#J"
			transform="matrix(1,0,0,1,834.6,1198.914798693699) translate(94.905 14.4)" />
		<path
			d="M565.56 1446.66A14.95 14.95 0 0 1 578 1440h44a14.95 14.95 0 0 1 12.44 6.66l11.12 16.68a12 12 0 0 1 0 13.32l-11.12 16.68A14.95 14.95 0 0 1 622 1500h-44a14.95 14.95 0 0 1-12.44-6.66l-11.12-16.68a12 12 0 0 1 0-13.32z"
			stroke="#3a414a" stroke-width="2" fill="#fff" />
		<use xlink:href="#K"
			transform="matrix(1,0,0,1,555.0000000000005,1445) translate(30 17.799999999999997)" />
		<use xlink:href="#L"
			transform="matrix(1,0,0,1,555.0000000000005,1445) translate(7.575000000000003 39.4)" />
		<path
			d="M1165.56 1446.66A14.95 14.95 0 0 1 1178 1440h44a14.95 14.95 0 0 1 12.44 6.66l11.12 16.68a12 12 0 0 1 0 13.32l-11.12 16.68A14.95 14.95 0 0 1 1222 1500h-44a14.95 14.95 0 0 1-12.44-6.66l-11.12-16.68a12 12 0 0 1 0-13.32z"
			stroke="#3a414a" stroke-width="2" fill="#fff" />
		<use xlink:href="#K"
			transform="matrix(1,0,0,1,1154.9999999999995,1445) translate(30 17.799999999999997)" />
		<use xlink:href="#L"
			transform="matrix(1,0,0,1,1154.9999999999995,1445) translate(7.575000000000003 39.4)" />
		<path
			d="M1015.56 1446.66A14.95 14.95 0 0 1 1028 1440h44a14.95 14.95 0 0 1 12.44 6.66l11.12 16.68a12 12 0 0 1 0 13.32l-11.12 16.68A14.95 14.95 0 0 1 1072 1500h-44a14.95 14.95 0 0 1-12.44-6.66l-11.12-16.68a12 12 0 0 1 0-13.32z"
			stroke="#3a414a" stroke-width="2" fill="#fff" />
		<use xlink:href="#K"
			transform="matrix(1,0,0,1,1004.9999999999998,1445) translate(30 17.799999999999997)" />
		<use xlink:href="#L"
			transform="matrix(1,0,0,1,1004.9999999999998,1445) translate(7.575000000000003 39.4)" />
		<path
			d="M865.56 1446.66A14.95 14.95 0 0 1 878 1440h44a14.95 14.95 0 0 1 12.44 6.66l11.12 16.68a12 12 0 0 1 0 13.32l-11.12 16.68A14.95 14.95 0 0 1 922 1500h-44a14.95 14.95 0 0 1-12.44-6.66l-11.12-16.68a12 12 0 0 1 0-13.32z"
			stroke="#3a414a" stroke-width="2" fill="#fff" />
		<use xlink:href="#K" transform="matrix(1,0,0,1,855,1445) translate(30 17.799999999999997)" />
		<use xlink:href="#L" transform="matrix(1,0,0,1,855,1445) translate(7.575000000000003 39.4)" />
		<path
			d="M715.56 1446.66A14.95 14.95 0 0 1 728 1440h44a14.95 14.95 0 0 1 12.44 6.66l11.12 16.68a12 12 0 0 1 0 13.32l-11.12 16.68A14.95 14.95 0 0 1 772 1500h-44a14.95 14.95 0 0 1-12.44-6.66l-11.12-16.68a12 12 0 0 1 0-13.32z"
			stroke="#3a414a" stroke-width="2" fill="#fff" />
		<use xlink:href="#K" transform="matrix(1,0,0,1,705,1445) translate(30 17.799999999999997)" />
		<use xlink:href="#L" transform="matrix(1,0,0,1,705,1445) translate(7.575000000000003 39.4)" />
		<path d="M601 1420.5h-2v-18.9h2zm0-62.1h-2V1322h2z" stroke="#3a414a" stroke-width=".05"
			fill="#3a414a" />
		<path d="M601 1322.03h-2V1321h2z" fill="#3a414a" />
		<path d="M601.02 1322.05H599v-1.08H601zm-2-1.02v.97H601v-.97z" stroke="#3a414a"
			stroke-width=".05" fill="#3a414a" />
		<path d="M600 1435.76l-4.63-14.26h9.26z" fill="#3a414a" />
		<path d="M600 1439l-6-18.5h12zm-3.26-16.5l3.26 10.03 3.26-10.03z" stroke="#3a414a"
			stroke-width=".05" fill="#3a414a" />
		<use xlink:href="#M"
			transform="matrix(1,0,0,1,564.0250000000004,1358.39998625) translate(0.005000000000002558 14.4)" />
		<use xlink:href="#N"
			transform="matrix(1,0,0,1,564.0250000000004,1358.39998625) translate(46.955000000000005 14.4)" />
		<use xlink:href="#O"
			transform="matrix(1,0,0,1,564.0250000000004,1358.39998625) translate(4.505000000000003 36)" />
		<path d="M751 1420.5h-2v-18.9h2zm0-62.1h-2V1322h2z" stroke="#3a414a" stroke-width=".05"
			fill="#3a414a" />
		<path d="M751 1322.03h-2V1321h2z" fill="#3a414a" />
		<path d="M751.02 1322.05H749v-1.08H751zm-2-1.02v.97H751v-.97z" stroke="#3a414a"
			stroke-width=".05" fill="#3a414a" />
		<path d="M750 1435.76l-4.63-14.26h9.26z" fill="#3a414a" />
		<path d="M750 1439l-6-18.5h12zm-3.26-16.5l3.26 10.03 3.26-10.03z" stroke="#3a414a"
			stroke-width=".05" fill="#3a414a" />
		<use xlink:href="#M"
			transform="matrix(1,0,0,1,714.0250000000002,1358.39998625) translate(0.005000000000002558 14.4)" />
		<use xlink:href="#N"
			transform="matrix(1,0,0,1,714.0250000000002,1358.39998625) translate(46.955000000000005 14.4)" />
		<use xlink:href="#O"
			transform="matrix(1,0,0,1,714.0250000000002,1358.39998625) translate(4.505000000000003 36)" />
		<path d="M901 1420.5h-2v-18.9h2zm0-62.1h-2V1322h2z" stroke="#3a414a" stroke-width=".05"
			fill="#3a414a" />
		<path d="M901 1322.03h-2V1321h2z" fill="#3a414a" />
		<path d="M901.02 1322.05H899v-1.08H901zm-2-1.02v.97H901v-.97z" stroke="#3a414a"
			stroke-width=".05" fill="#3a414a" />
		<path d="M900 1435.76l-4.63-14.26h9.26z" fill="#3a414a" />
		<path d="M900 1439l-6-18.5h12zm-3.26-16.5l3.26 10.03 3.26-10.03z" stroke="#3a414a"
			stroke-width=".05" fill="#3a414a" />
		<use xlink:href="#M"
			transform="matrix(1,0,0,1,864.025,1358.39998625) translate(0.005000000000002558 14.4)" />
		<use xlink:href="#N"
			transform="matrix(1,0,0,1,864.025,1358.39998625) translate(46.955000000000005 14.4)" />
		<use xlink:href="#O"
			transform="matrix(1,0,0,1,864.025,1358.39998625) translate(4.505000000000003 36)" />
		<path d="M1051 1420.5h-2v-18.9h2zm0-62.1h-2V1322h2z" stroke="#3a414a" stroke-width=".05"
			fill="#3a414a" />
		<path d="M1051 1322.03h-2V1321h2z" fill="#3a414a" />
		<path d="M1051.03 1322.05h-2.06v-1.08h2.06zm-2-1.02v.97h1.94v-.97z" stroke="#3a414a"
			stroke-width=".05" fill="#3a414a" />
		<path d="M1050 1435.76l-4.63-14.26h9.27z" fill="#3a414a" />
		<path d="M1050 1439l-6-18.5h12zm-3.26-16.5l3.26 10.03 3.26-10.03z" stroke="#3a414a"
			stroke-width=".05" fill="#3a414a" />
		<use xlink:href="#M"
			transform="matrix(1,0,0,1,1014.0249999999997,1358.39998625) translate(0.005000000000002558 14.4)" />
		<use xlink:href="#N"
			transform="matrix(1,0,0,1,1014.0249999999997,1358.39998625) translate(46.955000000000005 14.4)" />
		<use xlink:href="#O"
			transform="matrix(1,0,0,1,1014.0249999999997,1358.39998625) translate(4.505000000000003 36)" />
		<path d="M1201 1420.5h-2v-18.9h2zm0-62.1h-2V1322h2z" stroke="#3a414a" stroke-width=".05"
			fill="#3a414a" />
		<path d="M1201 1322.03h-2V1321h2z" fill="#3a414a" />
		<path d="M1201.03 1322.05h-2.06v-1.08h2.06zm-2-1.02v.97h1.94v-.97z" stroke="#3a414a"
			stroke-width=".05" fill="#3a414a" />
		<path d="M1200 1435.76l-4.63-14.26h9.27z" fill="#3a414a" />
		<path d="M1200 1439l-6-18.5h12zm-3.26-16.5l3.26 10.03 3.26-10.03z" stroke="#3a414a"
			stroke-width=".05" fill="#3a414a" />
		<g>
			<use xlink:href="#M"
				transform="matrix(1,0,0,1,1164.0249999999996,1358.39998625) translate(0.005000000000002558 14.4)" />
			<use xlink:href="#N"
				transform="matrix(1,0,0,1,1164.0249999999996,1358.39998625) translate(46.955000000000005 14.4)" />
			<use xlink:href="#O"
				transform="matrix(1,0,0,1,1164.0249999999996,1358.39998625) translate(4.505000000000003 36)" />
		</g>
		<path
			d="M960 1748c0 6.63-26.86 12-60 12s-60-5.37-60-12v-96c0-6.63 26.86-12 60-12s60 5.37 60 12z"
			stroke="#3a414a" stroke-width="2" fill="#fff" />
		<path d="M960 1652c0 6.63-26.86 12-60 12s-60-5.37-60-12" stroke="#3a414a" stroke-width="2"
			fill="none" />
		<g>
			<use xlink:href="#P"
				transform="matrix(1,0,0,1,845,1669) translate(1.5749999999999957 46.6)" />
		</g>
		<path
			d="M901 1620.5h-2v-14.05h2zm-300-92.54l.14 1.76.4 1.68.66 1.6.9 1.46 1.12 1.32 1.32 1.12 1.47.9 1.6.66 1.68.4 1.76.14h276l2 .16 1.98.47 1.88.78 1.74 1.08 1.56 1.33 1.32 1.56 1.07 1.74.77 1.88.47 2 .16 1.98v11.3h-2v-11.22l-.14-1.76-.4-1.68-.66-1.6-.9-1.46-1.12-1.32-1.32-1.12-1.47-.9-1.6-.66-1.68-.4-1.76-.14h-276l-2-.16-1.98-.47-1.88-.78-1.74-1.08-1.56-1.33-1.32-1.56-1.07-1.74-.77-1.88-.47-2-.16-1.98V1502h2z"
			stroke="#3a414a" stroke-width=".05" fill="#3a414a" />
		<path d="M601 1502.03h-2V1501h2z" fill="#3a414a" />
		<path d="M601.02 1502.05H599v-1.08H601zm-2-1.02v.97H601v-.97z" stroke="#3a414a"
			stroke-width=".05" fill="#3a414a" />
		<path d="M900 1635.76l-4.63-14.26h9.26z" fill="#3a414a" />
		<path
			d="M900 1639l-6-18.5h12zm-3.26-16.5l3.26 10.03 3.26-10.03zM901 1620.5h-2v-14.05h2zm-150-92.54l.14 1.76.4 1.68.66 1.6.9 1.46 1.12 1.32 1.32 1.12 1.47.9 1.6.66 1.68.4 1.76.14h126l2 .16 1.98.47 1.88.78 1.74 1.08 1.56 1.33 1.32 1.56 1.07 1.74.77 1.88.47 2 .16 1.98v11.3h-2v-11.22l-.14-1.76-.4-1.68-.66-1.6-.9-1.46-1.12-1.32-1.32-1.12-1.47-.9-1.6-.66-1.68-.4-1.76-.14h-126l-2-.16-1.98-.47-1.88-.78-1.74-1.08-1.56-1.33-1.32-1.56-1.07-1.74-.77-1.88-.47-2-.16-1.98V1502h2z"
			stroke="#3a414a" stroke-width=".05" fill="#3a414a" />
		<path d="M751 1502.03h-2V1501h2z" fill="#3a414a" />
		<path d="M751.02 1502.05H749v-1.08H751zm-2-1.02v.97H751v-.97z" stroke="#3a414a"
			stroke-width=".05" fill="#3a414a" />
		<path d="M900 1635.76l-4.63-14.26h9.26z" fill="#3a414a" />
		<path
			d="M900 1639l-6-18.5h12zm-3.26-16.5l3.26 10.03 3.26-10.03zM901 1620.5h-2v-14.05h2zm0-57.25h-2V1502h2z"
			stroke="#3a414a" stroke-width=".05" fill="#3a414a" />
		<path d="M901 1502.03h-2V1501h2z" fill="#3a414a" />
		<path d="M901.02 1502.05H899v-1.08H901zm-2-1.02v.97H901v-.97z" stroke="#3a414a"
			stroke-width=".05" fill="#3a414a" />
		<path d="M900 1635.76l-4.63-14.26h9.26z" fill="#3a414a" />
		<path
			d="M900 1639l-6-18.5h12zm-3.26-16.5l3.26 10.03 3.26-10.03zM901 1620.5h-2v-14.05h2zm150-92.46l-.16 2-.47 1.98-.78 1.88-1.08 1.74-1.33 1.55-1.56 1.32-1.74 1.07-1.88.77-2 .47-1.98.16h-126l-1.76.14-1.68.4-1.6.66-1.46.9-1.32 1.12-1.12 1.32-.9 1.47-.66 1.6-.4 1.68-.14 1.76v11.2h-2v-11.28l.16-2 .47-1.98.78-1.88 1.08-1.74 1.32-1.55 1.56-1.32 1.74-1.07 1.88-.77 2-.47 1.98-.16h126l1.76-.14 1.68-.4 1.6-.66 1.46-.9 1.32-1.12 1.12-1.32.9-1.47.66-1.6.4-1.68.14-1.76V1502h2z"
			stroke="#3a414a" stroke-width=".05" fill="#3a414a" />
		<path d="M1051 1502.03h-2V1501h2z" fill="#3a414a" />
		<path d="M1051.03 1502.05h-2.06v-1.08h2.06zm-2-1.02v.97h1.94v-.97z" stroke="#3a414a"
			stroke-width=".05" fill="#3a414a" />
		<path d="M900 1635.76l-4.63-14.26h9.26z" fill="#3a414a" />
		<path
			d="M900 1639l-6-18.5h12zm-3.26-16.5l3.26 10.03 3.26-10.03zM901 1620.5h-2v-14.05h2zm300-92.46l-.16 2-.47 1.98-.78 1.88-1.08 1.74-1.33 1.55-1.56 1.32-1.74 1.07-1.88.77-2 .47-1.98.16h-276l-1.76.14-1.68.4-1.6.66-1.46.9-1.32 1.12-1.12 1.32-.9 1.47-.66 1.6-.4 1.68-.14 1.76v11.2h-2v-11.28l.16-2 .47-1.98.78-1.88 1.08-1.74 1.32-1.55 1.56-1.32 1.74-1.07 1.88-.77 2-.47 1.98-.16h276l1.76-.14 1.68-.4 1.6-.66 1.46-.9 1.32-1.12 1.12-1.32.9-1.47.66-1.6.4-1.68.14-1.76V1502h2z"
			stroke="#3a414a" stroke-width=".05" fill="#3a414a" />
		<path d="M1201 1502.03h-2V1501h2z" fill="#3a414a" />
		<path d="M1201.03 1502.05h-2.06v-1.08h2.06zm-2-1.02v.97h1.94v-.97z" stroke="#3a414a"
			stroke-width=".05" fill="#3a414a" />
		<path d="M900 1635.76l-4.63-14.26h9.26z" fill="#3a414a" />
		<path d="M900 1639l-6-18.5h12zm-3.26-16.5l3.26 10.03 3.26-10.03z" stroke="#3a414a"
			stroke-width=".05" fill="#3a414a" />
		<g>
			<use xlink:href="#Q"
				transform="matrix(1,0,0,1,868.5,1563.2523109761555) translate(0.004999999999999005 14.4)" />
			<use xlink:href="#R"
				transform="matrix(1,0,0,1,868.5,1563.2523109761555) translate(9.529999999999998 36)" />
			<use xlink:href="#S"
				transform="matrix(1,0,0,1,868.5,1563.2523109761555) translate(38.48 36)" />
		</g>
		<path d="M1240 383.1a8 8 0 0 1 8-8h174a8 8 0 0 1 8 8v53.8a8 8 0 0 1-8 8h-174a8 8 0 0 1-8-8z"
			stroke="#000" stroke-opacity="0" fill="#fff" fill-opacity="0" />
		<g>
			<use xlink:href="#T"
				transform="matrix(1,0,0,1,1245,380.09999999999997) translate(1.4663580246913739 24.57777777777778)" />
			<use xlink:href="#U"
				transform="matrix(1,0,0,1,1245,380.09999999999997) translate(20.670061728395076 24.57777777777778)" />
			<use xlink:href="#V"
				transform="matrix(1,0,0,1,1245,380.09999999999997) translate(131.4114197530864 24.57777777777778)" />
			<use xlink:href="#W"
				transform="matrix(1,0,0,1,1245,380.09999999999997) translate(36.86141975308642 40.84444444444445)" />
			<use xlink:href="#X"
				transform="matrix(1,0,0,1,1245,380.09999999999997) translate(56.404012345679014 40.84444444444445)" />
			<use xlink:href="#Y"
				transform="matrix(1,0,0,1,1245,380.09999999999997) translate(89.53981481481482 40.84444444444445)" />
		</g>
		<path d="M1260 688a8 8 0 0 1 8-8h144a8 8 0 0 1 8 8v53.8a8 8 0 0 1-8 8h-144a8 8 0 0 1-8-8z"
			stroke="#000" stroke-opacity="0" fill="#fff" fill-opacity="0" />
		<g>
			<use xlink:href="#T"
				transform="matrix(1,0,0,1,1265,685) translate(18.010185185185193 24.57777777777778)" />
			<use xlink:href="#Z"
				transform="matrix(1,0,0,1,1265,685) translate(37.213888888888896 24.57777777777778)" />
			<use xlink:href="#aa"
				transform="matrix(1,0,0,1,1265,685) translate(63.57191358024692 24.57777777777778)" />
			<use xlink:href="#ab"
				transform="matrix(1,0,0,1,1265,685) translate(88.34845679012345 24.57777777777778)" />
			<use xlink:href="#ac"
				transform="matrix(1,0,0,1,1265,685) translate(116.92808641975309 24.57777777777778)" />
			<use xlink:href="#ad"
				transform="matrix(1,0,0,1,1265,685) translate(2.421296296296319 40.84444444444445)" />
			<use xlink:href="#ae"
				transform="matrix(1,0,0,1,1265,685) translate(51.33425925925927 40.84444444444445)" />
			<use xlink:href="#af"
				transform="matrix(1,0,0,1,1265,685) translate(115.27129629629628 40.84444444444445)" />
		</g>
		<path d="M1260 833.1a8 8 0 0 1 8-8h154a8 8 0 0 1 8 8v53.8a8 8 0 0 1-8 8h-154a8 8 0 0 1-8-8z"
			stroke="#000" stroke-opacity="0" fill="#fff" fill-opacity="0" />
		<g>
			<use xlink:href="#T"
				transform="matrix(1,0,0,1,1265,830.0999999999999) translate(2.3484567901234783 24.57777777777778)" />
			<use xlink:href="#ag"
				transform="matrix(1,0,0,1,1265,830.0999999999999) translate(21.55216049382718 24.57777777777778)" />
			<use xlink:href="#ah"
				transform="matrix(1,0,0,1,1265,830.0999999999999) translate(78.22191358024692 24.57777777777778)" />
			<use xlink:href="#ad"
				transform="matrix(1,0,0,1,1265,830.0999999999999) translate(10.180555555555571 40.84444444444445)" />
			<use xlink:href="#W"
				transform="matrix(1,0,0,1,1265,830.0999999999999) translate(59.09351851851852 40.84444444444445)" />
			<use xlink:href="#X"
				transform="matrix(1,0,0,1,1265,830.0999999999999) translate(78.63611111111112 40.84444444444445)" />
			<use xlink:href="#ai"
				transform="matrix(1,0,0,1,1265,830.0999999999999) translate(111.77191358024692 40.84444444444445)" />
			<use xlink:href="#aj"
				transform="matrix(1,0,0,1,1265,830.0999999999999) translate(133.57376543209875 40.84444444444445)" />
		</g>
		<defs>
			<path fill="#a9afb8"
				d="M24-248c93 1 206-16 204 79-1 75-69 88-152 82V0H24v-248zm52 121c47 0 100 7 100-41 0-47-54-39-100-39v80"
				id="ak" />
			<path fill="#a9afb8"
				d="M135-150c-39-12-60 13-60 57V0H25l-1-190h47c2 13-1 29 3 40 6-28 27-53 61-41v41"
				id="al" />
			<path fill="#a9afb8"
				d="M110-194c64 0 96 36 96 99 0 64-35 99-97 99-61 0-95-36-95-99 0-62 34-99 96-99zm-1 164c35 0 45-28 45-65 0-40-10-65-43-65-34 0-45 26-45 65 0 36 10 65 43 65"
				id="am" />
			<path fill="#a9afb8"
				d="M25-224v-37h50v37H25zM75 22c2 45-34 59-81 51V38c22 5 31-5 31-27v-201h50V22"
				id="an" />
			<path fill="#a9afb8"
				d="M185-48c-13 30-37 53-82 52C43 2 14-33 14-96s30-98 90-98c62 0 83 45 84 108H66c0 31 8 55 39 56 18 0 30-7 34-22zm-45-69c5-46-57-63-70-21-2 6-4 13-4 21h74"
				id="ao" />
			<path fill="#a9afb8"
				d="M190-63c-7 42-38 67-86 67-59 0-84-38-90-98-12-110 154-137 174-36l-49 2c-2-19-15-32-35-32-30 0-35 28-38 64-6 74 65 87 74 30"
				id="ap" />
			<path fill="#a9afb8"
				d="M115-3C79 11 28 4 28-45v-112H4v-33h27l15-45h31v45h36v33H77v99c-1 23 16 31 38 25v30"
				id="aq" />
			<g id="a">
				<use transform="matrix(0.0728395061728395,0,0,0.0728395061728395,0,0)"
					xlink:href="#ak" />
				<use
					transform="matrix(0.0728395061728395,0,0,0.0728395061728395,17.48148148148148,0)"
					xlink:href="#al" />
				<use
					transform="matrix(0.0728395061728395,0,0,0.0728395061728395,27.679012345679013,0)"
					xlink:href="#am" />
				<use
					transform="matrix(0.0728395061728395,0,0,0.0728395061728395,43.63086419753086,0)"
					xlink:href="#an" />
				<use
					transform="matrix(0.0728395061728395,0,0,0.0728395061728395,50.91481481481481,0)"
					xlink:href="#ao" />
				<use
					transform="matrix(0.0728395061728395,0,0,0.0728395061728395,65.48271604938272,0)"
					xlink:href="#ap" />
				<use
					transform="matrix(0.0728395061728395,0,0,0.0728395061728395,80.05061728395061,0)"
					xlink:href="#aq" />
			</g>
			<path fill="#a9afb8" d="M76-208v77h127v40H76V0H24v-248h183v40H76" id="ar" />
			<path fill="#a9afb8" d="M25 0v-261h50V0H25" id="as" />
			<path fill="#a9afb8"
				d="M231 0h-52l-39-155L100 0H48L-1-190h46L77-45c9-52 24-97 36-145h53l37 145 32-145h46"
				id="at" />
			<g id="b">
				<use transform="matrix(0.0728395061728395,0,0,0.0728395061728395,0,0)"
					xlink:href="#ar" />
				<use
					transform="matrix(0.0728395061728395,0,0,0.0728395061728395,15.95185185185185,0)"
					xlink:href="#as" />
				<use
					transform="matrix(0.0728395061728395,0,0,0.0728395061728395,23.235802469135802,0)"
					xlink:href="#am" />
				<use
					transform="matrix(0.0728395061728395,0,0,0.0728395061728395,39.187654320987654,0)"
					xlink:href="#at" />
			</g>
			<path fill="#a9afb8"
				d="M67-125c0 53 21 87 73 88 37 1 54-22 65-47l45 17C233-25 199 4 140 4 58 4 20-42 15-125 8-235 124-281 211-232c18 10 29 29 36 50l-46 12c-8-25-30-41-62-41-52 0-71 34-72 86"
				id="au" />
			<path fill="#a9afb8"
				d="M114-157C55-157 80-60 75 0H25v-261h50l-1 109c12-26 28-41 61-42 86-1 58 113 63 194h-50c-7-57 23-157-34-157"
				id="av" />
			<path fill="#a9afb8"
				d="M133-34C117-15 103 5 69 4 32 3 11-16 11-54c-1-60 55-63 116-61 1-26-3-47-28-47-18 1-26 9-28 27l-52-2c7-38 36-58 82-57s74 22 75 68l1 82c-1 14 12 18 25 15v27c-30 8-71 5-69-32zm-48 3c29 0 43-24 42-57-32 0-66-3-65 30 0 17 8 27 23 27"
				id="aw" />
			<g id="c">
				<use transform="matrix(0.0728395061728395,0,0,0.0728395061728395,0,0)"
					xlink:href="#au" />
				<use
					transform="matrix(0.0728395061728395,0,0,0.0728395061728395,18.86543209876543,0)"
					xlink:href="#av" />
				<use
					transform="matrix(0.0728395061728395,0,0,0.0728395061728395,34.81728395061728,0)"
					xlink:href="#aw" />
				<use
					transform="matrix(0.0728395061728395,0,0,0.0728395061728395,49.38518518518518,0)"
					xlink:href="#al" />
				<use
					transform="matrix(0.0728395061728395,0,0,0.0728395061728395,59.582716049382704,0)"
					xlink:href="#aq" />
			</g>
			<path fill="#a9afb8" d="M33 0v-248h34V0H33" id="ax" />
			<path fill="#a9afb8"
				d="M185-189c-5-48-123-54-124 2 14 75 158 14 163 119 3 78-121 87-175 55-17-10-28-26-33-46l33-7c5 56 141 63 141-1 0-78-155-14-162-118-5-82 145-84 179-34 5 7 8 16 11 25"
				id="ay" />
			<path fill="#a9afb8"
				d="M140-251c81 0 123 46 123 126C263-46 219 4 140 4 59 4 17-45 17-125s42-126 123-126zm0 227c63 0 89-41 89-101s-29-99-89-99c-61 0-89 39-89 99S79-25 140-24"
				id="az" />
			<path fill="#a9afb8"
				d="M54-142c48-35 137-8 131 61C196 18 31 33 14-55l32-4c7 23 22 37 52 37 35-1 51-22 54-58 4-55-73-65-99-34H22l8-134h141v27H59"
				id="aA" />
			<path fill="#a9afb8"
				d="M126-127c33 6 58 20 58 59 0 88-139 92-164 29-3-8-5-16-6-25l32-3c6 27 21 44 54 44 32 0 52-15 52-46 0-38-36-46-79-43v-28c39 1 72-4 72-42 0-27-17-43-46-43-28 0-47 15-49 41l-32-3c6-42 35-63 81-64 48-1 79 21 79 65 0 36-21 52-52 59"
				id="aB" />
			<g id="d">
				<use transform="matrix(0.04248971193415638,0,0,0.04248971193415638,0,0)"
					xlink:href="#ax" />
				<use
					transform="matrix(0.04248971193415638,0,0,0.04248971193415638,4.248971193415637,0)"
					xlink:href="#ay" />
				<use
					transform="matrix(0.04248971193415638,0,0,0.04248971193415638,14.446502057613166,0)"
					xlink:href="#az" />
				<use
					transform="matrix(0.04248971193415638,0,0,0.04248971193415638,26.343621399176953,0)"
					xlink:href="#aA" />
				<use
					transform="matrix(0.04248971193415638,0,0,0.04248971193415638,34.84156378600823,0)"
					xlink:href="#aB" />
			</g>
			<path fill="#a9afb8" d="M32 76v-337h29V76H32" id="aC" />
			<use transform="matrix(0.04248971193415638,0,0,0.04248971193415638,0,0)"
				xlink:href="#aC" id="e" />
			<path fill="#a9afb8"
				d="M30-248c118-7 216 8 213 122C240-48 200 0 122 0H30v-248zM63-27c89 8 146-16 146-99s-60-101-146-95v194"
				id="aD" />
			<path fill="#a9afb8" d="M190 0L58-211 59 0H30v-248h39L202-35l-2-213h31V0h-41" id="aE" />
			<g id="f">
				<use transform="matrix(0.04248971193415638,0,0,0.04248971193415638,0,0)"
					xlink:href="#aD" />
				<use
					transform="matrix(0.04248971193415638,0,0,0.04248971193415638,11.004835390946502,0)"
					xlink:href="#aE" />
				<use
					transform="matrix(0.04248971193415638,0,0,0.04248971193415638,22.009670781893004,0)"
					xlink:href="#ay" />
			</g>
			<path fill="#a9afb8" d="M30 0v-248h33v221h125V0H30" id="aF" />
			<path fill="#a9afb8"
				d="M100-194c62-1 85 37 85 99 1 63-27 99-86 99S16-35 15-95c0-66 28-99 85-99zM99-20c44 1 53-31 53-75 0-43-8-75-51-75s-53 32-53 75 10 74 51 75"
				id="aG" />
			<path fill="#a9afb8"
				d="M177-190C167-65 218 103 67 71c-23-6-38-20-44-43l32-5c15 47 100 32 89-28v-30C133-14 115 1 83 1 29 1 15-40 15-95c0-56 16-97 71-98 29-1 48 16 59 35 1-10 0-23 2-32h30zM94-22c36 0 50-32 50-73 0-42-14-75-50-75-39 0-46 34-46 75s6 73 46 73"
				id="aH" />
			<g id="g">
				<use transform="matrix(0.04248971193415638,0,0,0.04248971193415638,0,0)"
					xlink:href="#aF" />
				<use
					transform="matrix(0.04248971193415638,0,0,0.04248971193415638,8.497942386831275,0)"
					xlink:href="#aG" />
				<use
					transform="matrix(0.04248971193415638,0,0,0.04248971193415638,16.99588477366255,0)"
					xlink:href="#aH" />
			</g>
			<path fill="#a9afb8" d="M24-231v-30h32v30H24zM24 0v-190h32V0H24" id="aI" />
			<path fill="#a9afb8"
				d="M135-143c-3-34-86-38-87 0 15 53 115 12 119 90S17 21 10-45l28-5c4 36 97 45 98 0-10-56-113-15-118-90-4-57 82-63 122-42 12 7 21 19 24 35"
				id="aJ" />
			<path fill="#a9afb8"
				d="M59-47c-2 24 18 29 38 22v24C64 9 27 4 27-40v-127H5v-23h24l9-43h21v43h35v23H59v120"
				id="aK" />
			<path fill="#a9afb8"
				d="M100-194c63 0 86 42 84 106H49c0 40 14 67 53 68 26 1 43-12 49-29l28 8c-11 28-37 45-77 45C44 4 14-33 15-96c1-61 26-98 85-98zm52 81c6-60-76-77-97-28-3 7-6 17-6 28h103"
				id="aL" />
			<path fill="#a9afb8"
				d="M117-194c89-4 53 116 60 194h-32v-121c0-31-8-49-39-48C34-167 62-67 57 0H25l-1-190h30c1 10-1 24 2 32 11-22 29-35 61-36"
				id="aM" />
			<path fill="#a9afb8"
				d="M114-163C36-179 61-72 57 0H25l-1-190h30c1 12-1 29 2 39 6-27 23-49 58-41v29"
				id="aN" />
			<g id="h">
				<use transform="matrix(0.04248971193415638,0,0,0.04248971193415638,0,0)"
					xlink:href="#aF" />
				<use
					transform="matrix(0.04248971193415638,0,0,0.04248971193415638,8.497942386831275,0)"
					xlink:href="#aI" />
				<use
					transform="matrix(0.04248971193415638,0,0,0.04248971193415638,11.854629629629626,0)"
					xlink:href="#aJ" />
				<use
					transform="matrix(0.04248971193415638,0,0,0.04248971193415638,19.502777777777776,0)"
					xlink:href="#aK" />
				<use
					transform="matrix(0.04248971193415638,0,0,0.04248971193415638,23.751748971193415,0)"
					xlink:href="#aL" />
				<use
					transform="matrix(0.04248971193415638,0,0,0.04248971193415638,32.24969135802469,0)"
					xlink:href="#aM" />
				<use
					transform="matrix(0.04248971193415638,0,0,0.04248971193415638,40.74763374485597,0)"
					xlink:href="#aL" />
				<use
					transform="matrix(0.04248971193415638,0,0,0.04248971193415638,49.245576131687244,0)"
					xlink:href="#aN" />
			</g>
			<path fill="#a9afb8"
				d="M205 0l-28-72H64L36 0H1l101-248h38L239 0h-34zm-38-99l-47-123c-12 45-31 82-46 123h93"
				id="aO" />
			<path fill="#a9afb8"
				d="M141-36C126-15 110 5 73 4 37 3 15-17 15-53c-1-64 63-63 125-63 3-35-9-54-41-54-24 1-41 7-42 31l-33-3c5-37 33-52 76-52 45 0 72 20 72 64v82c-1 20 7 32 28 27v20c-31 9-61-2-59-35zM48-53c0 20 12 33 32 33 41-3 63-29 60-74-43 2-92-5-92 41"
				id="aP" />
			<path fill="#a9afb8" d="M24 0v-261h32V0H24" id="aQ" />
			<path fill="#a9afb8"
				d="M179-190L93 31C79 59 56 82 12 73V49c39 6 53-20 64-50L1-190h34L92-34l54-156h33"
				id="aR" />
			<path fill="#a9afb8" d="M9 0v-24l116-142H16v-24h144v24L44-24h123V0H9" id="aS" />
			<g id="i">
				<use transform="matrix(0.04248971193415638,0,0,0.04248971193415638,0,0)"
					xlink:href="#aO" />
				<use
					transform="matrix(0.04248971193415638,0,0,0.04248971193415638,10.19753086419753,0)"
					xlink:href="#aM" />
				<use
					transform="matrix(0.04248971193415638,0,0,0.04248971193415638,18.695473251028805,0)"
					xlink:href="#aP" />
				<use
					transform="matrix(0.04248971193415638,0,0,0.04248971193415638,27.193415637860078,0)"
					xlink:href="#aQ" />
				<use
					transform="matrix(0.04248971193415638,0,0,0.04248971193415638,30.55010288065843,0)"
					xlink:href="#aR" />
				<use
					transform="matrix(0.04248971193415638,0,0,0.04248971193415638,38.19825102880658,0)"
					xlink:href="#aS" />
				<use
					transform="matrix(0.04248971193415638,0,0,0.04248971193415638,45.84639917695473,0)"
					xlink:href="#aL" />
				<use
					transform="matrix(0.04248971193415638,0,0,0.04248971193415638,54.344341563786,0)"
					xlink:href="#aN" />
			</g>
			<path fill="#3a414a"
				d="M30-248c118-7 216 8 213 122C240-48 200 0 122 0H30v-248zM63-27c89 8 146-16 146-99s-60-101-146-95v194"
				id="aT" />
			<path fill="#3a414a" d="M24-231v-30h32v30H24zM24 0v-190h32V0H24" id="aU" />
			<path fill="#3a414a"
				d="M114-163C36-179 61-72 57 0H25l-1-190h30c1 12-1 29 2 39 6-27 23-49 58-41v29"
				id="aV" />
			<path fill="#3a414a"
				d="M100-194c63 0 86 42 84 106H49c0 40 14 67 53 68 26 1 43-12 49-29l28 8c-11 28-37 45-77 45C44 4 14-33 15-96c1-61 26-98 85-98zm52 81c6-60-76-77-97-28-3 7-6 17-6 28h103"
				id="aW" />
			<path fill="#3a414a"
				d="M96-169c-40 0-48 33-48 73s9 75 48 75c24 0 41-14 43-38l32 2c-6 37-31 61-74 61-59 0-76-41-82-99-10-93 101-131 147-64 4 7 5 14 7 22l-32 3c-4-21-16-35-41-35"
				id="aX" />
			<path fill="#3a414a"
				d="M59-47c-2 24 18 29 38 22v24C64 9 27 4 27-40v-127H5v-23h24l9-43h21v43h35v23H59v120"
				id="aY" />
			<path fill="#3a414a"
				d="M100-194c62-1 85 37 85 99 1 63-27 99-86 99S16-35 15-95c0-66 28-99 85-99zM99-20c44 1 53-31 53-75 0-43-8-75-51-75s-53 32-53 75 10 74 51 75"
				id="aZ" />
			<path fill="#3a414a"
				d="M179-190L93 31C79 59 56 82 12 73V49c39 6 53-20 64-50L1-190h34L92-34l54-156h33"
				id="ba" />
			<path fill="#3a414a"
				d="M266 0h-40l-56-210L115 0H75L2-248h35L96-30l15-64 43-154h32l59 218 59-218h35"
				id="bb" />
			<path fill="#3a414a"
				d="M141-36C126-15 110 5 73 4 37 3 15-17 15-53c-1-64 63-63 125-63 3-35-9-54-41-54-24 1-41 7-42 31l-33-3c5-37 33-52 76-52 45 0 72 20 72 64v82c-1 20 7 32 28 27v20c-31 9-61-2-59-35zM48-53c0 20 12 33 32 33 41-3 63-29 60-74-43 2-92-5-92 41"
				id="bc" />
			<path fill="#3a414a"
				d="M106-169C34-169 62-67 57 0H25v-261h32l-1 103c12-21 28-36 61-36 89 0 53 116 60 194h-32v-121c2-32-8-49-39-48"
				id="bd" />
			<g id="j">
				<use transform="matrix(0.05,0,0,0.05,0,0)" xlink:href="#aT" />
				<use transform="matrix(0.05,0,0,0.05,12.950000000000001,0)" xlink:href="#aU" />
				<use transform="matrix(0.05,0,0,0.05,16.900000000000002,0)" xlink:href="#aV" />
				<use transform="matrix(0.05,0,0,0.05,22.85,0)" xlink:href="#aW" />
				<use transform="matrix(0.05,0,0,0.05,32.85,0)" xlink:href="#aX" />
				<use transform="matrix(0.05,0,0,0.05,41.85,0)" xlink:href="#aY" />
				<use transform="matrix(0.05,0,0,0.05,46.85,0)" xlink:href="#aZ" />
				<use transform="matrix(0.05,0,0,0.05,56.85,0)" xlink:href="#aV" />
				<use transform="matrix(0.05,0,0,0.05,62.800000000000004,0)" xlink:href="#ba" />
				<use transform="matrix(0.05,0,0,0.05,71.80000000000001,0)" xlink:href="#bb" />
				<use transform="matrix(0.05,0,0,0.05,88.10000000000001,0)" xlink:href="#bc" />
				<use transform="matrix(0.05,0,0,0.05,98.10000000000001,0)" xlink:href="#aY" />
				<use transform="matrix(0.05,0,0,0.05,103.10000000000001,0)" xlink:href="#aX" />
				<use transform="matrix(0.05,0,0,0.05,112.10000000000001,0)" xlink:href="#bd" />
				<use transform="matrix(0.05,0,0,0.05,122.10000000000001,0)" xlink:href="#aW" />
				<use transform="matrix(0.05,0,0,0.05,132.10000000000002,0)" xlink:href="#aV" />
			</g>
			<path fill="#3a414a"
				d="M30-248c87 1 191-15 191 75 0 78-77 80-158 76V0H30v-248zm33 125c57 0 124 11 124-50 0-59-68-47-124-48v98"
				id="be" />
			<path fill="#3a414a"
				d="M177-190C167-65 218 103 67 71c-23-6-38-20-44-43l32-5c15 47 100 32 89-28v-30C133-14 115 1 83 1 29 1 15-40 15-95c0-56 16-97 71-98 29-1 48 16 59 35 1-10 0-23 2-32h30zM94-22c36 0 50-32 50-73 0-42-14-75-50-75-39 0-46 34-46 75s6 73 46 73"
				id="bf" />
			<path fill="#3a414a"
				d="M210-169c-67 3-38 105-44 169h-31v-121c0-29-5-50-35-48C34-165 62-65 56 0H25l-1-190h30c1 10-1 24 2 32 10-44 99-50 107 0 11-21 27-35 58-36 85-2 47 119 55 194h-31v-121c0-29-5-49-35-48"
				id="bg" />
			<g id="k">
				<use transform="matrix(0.05,0,0,0.05,0,0)" xlink:href="#be" />
				<use transform="matrix(0.05,0,0,0.05,12,0)" xlink:href="#aV" />
				<use transform="matrix(0.05,0,0,0.05,17.95,0)" xlink:href="#aZ" />
				<use transform="matrix(0.05,0,0,0.05,27.950000000000003,0)" xlink:href="#bf" />
				<use transform="matrix(0.05,0,0,0.05,37.95,0)" xlink:href="#aV" />
				<use transform="matrix(0.05,0,0,0.05,43.900000000000006,0)" xlink:href="#bc" />
				<use transform="matrix(0.05,0,0,0.05,53.900000000000006,0)" xlink:href="#bg" />
			</g>
			<path fill="#3a414a"
				d="M212-179c-10-28-35-45-73-45-59 0-87 40-87 99 0 60 29 101 89 101 43 0 62-24 78-52l27 14C228-24 195 4 139 4 59 4 22-46 18-125c-6-104 99-153 187-111 19 9 31 26 39 46"
				id="bh" />
			<path fill="#3a414a"
				d="M135-143c-3-34-86-38-87 0 15 53 115 12 119 90S17 21 10-45l28-5c4 36 97 45 98 0-10-56-113-15-118-90-4-57 82-63 122-42 12 7 21 19 24 35"
				id="bi" />
			<g id="l">
				<use transform="matrix(0.05,0,0,0.05,0,0)" xlink:href="#bh" />
				<use transform="matrix(0.05,0,0,0.05,12.950000000000001,0)" xlink:href="#aV" />
				<use transform="matrix(0.05,0,0,0.05,18.900000000000002,0)" xlink:href="#aW" />
				<use transform="matrix(0.05,0,0,0.05,28.900000000000002,0)" xlink:href="#bc" />
				<use transform="matrix(0.05,0,0,0.05,38.900000000000006,0)" xlink:href="#aY" />
				<use transform="matrix(0.05,0,0,0.05,43.900000000000006,0)" xlink:href="#aW" />
				<use transform="matrix(0.05,0,0,0.05,53.900000000000006,0)" xlink:href="#bi" />
			</g>
			<path fill="#3a414a"
				d="M101-234c-31-9-42 10-38 44h38v23H63V0H32v-167H5v-23h27c-7-52 17-82 69-68v24"
				id="bj" />
			<g id="m">
				<use transform="matrix(0.05,0,0,0.05,0,0)" xlink:href="#bj" />
				<use transform="matrix(0.05,0,0,0.05,5,0)" xlink:href="#aZ" />
				<use transform="matrix(0.05,0,0,0.05,15,0)" xlink:href="#aV" />
			</g>
			<g id="n">
				<use transform="matrix(0.05,0,0,0.05,0,0)" xlink:href="#aW" />
				<use transform="matrix(0.05,0,0,0.05,10,0)" xlink:href="#bc" />
				<use transform="matrix(0.05,0,0,0.05,20,0)" xlink:href="#aX" />
				<use transform="matrix(0.05,0,0,0.05,29,0)" xlink:href="#bd" />
			</g>
			<path fill="#3a414a" d="M24 0v-261h32V0H24" id="bk" />
			<path fill="#3a414a"
				d="M85-194c31 0 48 13 60 33l-1-100h32l1 261h-30c-2-10 0-23-3-31C134-8 116 4 85 4 32 4 16-35 15-94c0-66 23-100 70-100zm9 24c-40 0-46 34-46 75 0 40 6 74 45 74 42 0 51-32 51-76 0-42-9-74-50-73"
				id="bl" />
			<g id="o">
				<use transform="matrix(0.05,0,0,0.05,0,0)" xlink:href="#bj" />
				<use transform="matrix(0.05,0,0,0.05,5,0)" xlink:href="#aZ" />
				<use transform="matrix(0.05,0,0,0.05,15,0)" xlink:href="#bk" />
				<use transform="matrix(0.05,0,0,0.05,18.95,0)" xlink:href="#bl" />
				<use transform="matrix(0.05,0,0,0.05,28.950000000000003,0)" xlink:href="#aW" />
				<use transform="matrix(0.05,0,0,0.05,38.95,0)" xlink:href="#aV" />
			</g>
			<g id="p">
				<use transform="matrix(0.05,0,0,0.05,0,0)" xlink:href="#aT" />
				<use transform="matrix(0.05,0,0,0.05,12.950000000000001,0)" xlink:href="#aU" />
				<use transform="matrix(0.05,0,0,0.05,16.900000000000002,0)" xlink:href="#aV" />
				<use transform="matrix(0.05,0,0,0.05,22.85,0)" xlink:href="#aW" />
				<use transform="matrix(0.05,0,0,0.05,32.85,0)" xlink:href="#aX" />
				<use transform="matrix(0.05,0,0,0.05,41.85,0)" xlink:href="#aY" />
				<use transform="matrix(0.05,0,0,0.05,46.85,0)" xlink:href="#aZ" />
				<use transform="matrix(0.05,0,0,0.05,56.85,0)" xlink:href="#aV" />
				<use transform="matrix(0.05,0,0,0.05,62.800000000000004,0)" xlink:href="#ba" />
			</g>
			<path fill="#3a414a"
				d="M87 75C49 33 22-17 22-94c0-76 28-126 65-167h31c-38 41-64 92-64 168S80 34 118 75H87"
				id="bm" />
			<path fill="#3a414a" d="M63-220v92h138v28H63V0H30v-248h175v28H63" id="bn" />
			<path fill="#3a414a"
				d="M33-261c38 41 65 92 65 168S71 34 33 75H2C39 34 66-17 66-93S39-220 2-261h31"
				id="bo" />
			<g id="q">
				<use transform="matrix(0.05,0,0,0.05,0,0)" xlink:href="#bm" />
				<use transform="matrix(0.05,0,0,0.05,5.95,0)" xlink:href="#bn" />
				<use transform="matrix(0.05,0,0,0.05,16.900000000000002,0)" xlink:href="#aZ" />
				<use transform="matrix(0.05,0,0,0.05,26.900000000000002,0)" xlink:href="#bk" />
				<use transform="matrix(0.05,0,0,0.05,30.85,0)" xlink:href="#bl" />
				<use transform="matrix(0.05,0,0,0.05,40.85,0)" xlink:href="#aW" />
				<use transform="matrix(0.05,0,0,0.05,50.85,0)" xlink:href="#aV" />
				<use transform="matrix(0.05,0,0,0.05,56.800000000000004,0)" xlink:href="#bo" />
			</g>
			<g id="r">
				<use transform="matrix(0.05,0,0,0.05,0,0)" xlink:href="#bb" />
				<use transform="matrix(0.05,0,0,0.05,16.3,0)" xlink:href="#bc" />
				<use transform="matrix(0.05,0,0,0.05,26.3,0)" xlink:href="#aY" />
				<use transform="matrix(0.05,0,0,0.05,31.3,0)" xlink:href="#aX" />
				<use transform="matrix(0.05,0,0,0.05,40.3,0)" xlink:href="#bd" />
				<use transform="matrix(0.05,0,0,0.05,50.3,0)" xlink:href="#aW" />
				<use transform="matrix(0.05,0,0,0.05,60.29999999999999,0)" xlink:href="#bi" />
			</g>
			<path fill="#3a414a" d="M30 0v-248h33v221h125V0H30" id="bp" />
			<g id="s">
				<use transform="matrix(0.05,0,0,0.05,0,0)" xlink:href="#bp" />
				<use transform="matrix(0.05,0,0,0.05,10,0)" xlink:href="#aZ" />
				<use transform="matrix(0.05,0,0,0.05,20,0)" xlink:href="#bf" />
			</g>
			<g id="t">
				<use transform="matrix(0.05,0,0,0.05,0,0)" xlink:href="#bn" />
				<use transform="matrix(0.05,0,0,0.05,10.950000000000001,0)" xlink:href="#aU" />
				<use transform="matrix(0.05,0,0,0.05,14.9,0)" xlink:href="#bk" />
				<use transform="matrix(0.05,0,0,0.05,18.85,0)" xlink:href="#aW" />
			</g>
			<path fill="#3a414a"
				d="M117-194c89-4 53 116 60 194h-32v-121c0-31-8-49-39-48C34-167 62-67 57 0H25l-1-190h30c1 10-1 24 2 32 11-22 29-35 61-36"
				id="bq" />
			<g id="u">
				<use transform="matrix(0.05,0,0,0.05,0,0)" xlink:href="#bh" />
				<use transform="matrix(0.05,0,0,0.05,12.950000000000001,0)" xlink:href="#aZ" />
				<use transform="matrix(0.05,0,0,0.05,22.950000000000003,0)" xlink:href="#bq" />
				<use transform="matrix(0.05,0,0,0.05,32.95,0)" xlink:href="#aY" />
				<use transform="matrix(0.05,0,0,0.05,37.95,0)" xlink:href="#bc" />
				<use transform="matrix(0.05,0,0,0.05,47.95,0)" xlink:href="#aU" />
				<use transform="matrix(0.05,0,0,0.05,51.900000000000006,0)" xlink:href="#bq" />
				<use transform="matrix(0.05,0,0,0.05,61.900000000000006,0)" xlink:href="#bi" />
			</g>
			<g id="v">
				<use transform="matrix(0.05,0,0,0.05,0,0)" xlink:href="#bb" />
				<use transform="matrix(0.05,0,0,0.05,16.3,0)" xlink:href="#bc" />
				<use transform="matrix(0.05,0,0,0.05,26.3,0)" xlink:href="#aY" />
				<use transform="matrix(0.05,0,0,0.05,31.3,0)" xlink:href="#aX" />
				<use transform="matrix(0.05,0,0,0.05,40.3,0)" xlink:href="#bd" />
				<use transform="matrix(0.05,0,0,0.05,50.3,0)" xlink:href="#aW" />
				<use transform="matrix(0.05,0,0,0.05,60.29999999999999,0)" xlink:href="#aV" />
			</g>
			<g id="w">
				<use transform="matrix(0.05,0,0,0.05,0,0)" xlink:href="#bb" />
				<use transform="matrix(0.05,0,0,0.05,16.3,0)" xlink:href="#bc" />
				<use transform="matrix(0.05,0,0,0.05,26.3,0)" xlink:href="#aY" />
				<use transform="matrix(0.05,0,0,0.05,31.3,0)" xlink:href="#aX" />
				<use transform="matrix(0.05,0,0,0.05,40.3,0)" xlink:href="#bd" />
				<use transform="matrix(0.05,0,0,0.05,50.3,0)" xlink:href="#aW" />
				<use transform="matrix(0.05,0,0,0.05,60.29999999999999,0)" xlink:href="#bl" />
			</g>
			<path fill="#3a414a"
				d="M160-131c35 5 61 23 61 61C221 17 115-2 30 0v-248c76 3 177-17 177 60 0 33-19 50-47 57zm-97-11c50-1 110 9 110-42 0-47-63-36-110-37v79zm0 115c55-2 124 14 124-45 0-56-70-42-124-44v89"
				id="br" />
			<g id="x">
				<use transform="matrix(0.05,0,0,0.05,0,0)" xlink:href="#br" />
				<use transform="matrix(0.05,0,0,0.05,12,0)" xlink:href="#ba" />
			</g>
			<path fill="#3a414a"
				d="M233-177c-1 41-23 64-60 70L243 0h-38l-65-103H63V0H30v-248c88 3 205-21 203 71zM63-129c60-2 137 13 137-47 0-61-80-42-137-45v92"
				id="bs" />
			<path fill="#3a414a"
				d="M115-194c53 0 69 39 70 98 0 66-23 100-70 100C84 3 66-7 56-30L54 0H23l1-261h32v101c10-23 28-34 59-34zm-8 174c40 0 45-34 45-75 0-40-5-75-45-74-42 0-51 32-51 76 0 43 10 73 51 73"
				id="bt" />
			<path fill="#3a414a"
				d="M240 0l2-218c-23 76-54 145-80 218h-23L58-218 59 0H30v-248h44l77 211c21-75 51-140 76-211h43V0h-30"
				id="bu" />
			<path fill="#3a414a"
				d="M140-251c81 0 123 46 123 126C263-53 228-8 163 1c7 30 30 48 69 40v23c-55 16-95-15-103-61C56-3 17-48 17-125c0-80 42-126 123-126zm0 227c63 0 89-41 89-101s-29-99-89-99c-61 0-89 39-89 99S79-25 140-24"
				id="bv" />
			<g id="y">
				<use transform="matrix(0.05,0,0,0.05,0,0)" xlink:href="#bs" />
				<use transform="matrix(0.05,0,0,0.05,12.950000000000001,0)" xlink:href="#bc" />
				<use transform="matrix(0.05,0,0,0.05,22.950000000000003,0)" xlink:href="#bt" />
				<use transform="matrix(0.05,0,0,0.05,32.95,0)" xlink:href="#bt" />
				<use transform="matrix(0.05,0,0,0.05,42.95,0)" xlink:href="#aU" />
				<use transform="matrix(0.05,0,0,0.05,46.900000000000006,0)" xlink:href="#aY" />
				<use transform="matrix(0.05,0,0,0.05,51.900000000000006,0)" xlink:href="#bu" />
				<use transform="matrix(0.05,0,0,0.05,66.85000000000001,0)" xlink:href="#bv" />
			</g>
			<path fill="#3a414a"
				d="M84 4C-5 8 30-112 23-190h32v120c0 31 7 50 39 49 72-2 45-101 50-169h31l1 190h-30c-1-10 1-25-2-33-11 22-28 36-60 37"
				id="bw" />
			<g id="z">
				<use transform="matrix(0.05,0,0,0.05,0,0)" xlink:href="#bv" />
				<use transform="matrix(0.05,0,0,0.05,14,0)" xlink:href="#bw" />
				<use transform="matrix(0.05,0,0,0.05,24,0)" xlink:href="#aW" />
				<use transform="matrix(0.05,0,0,0.05,34,0)" xlink:href="#bw" />
				<use transform="matrix(0.05,0,0,0.05,44,0)" xlink:href="#aW" />
			</g>
			<g id="A">
				<use transform="matrix(0.05,0,0,0.05,0,0)" xlink:href="#bh" />
				<use transform="matrix(0.05,0,0,0.05,12.950000000000001,0)" xlink:href="#aZ" />
				<use transform="matrix(0.05,0,0,0.05,22.950000000000003,0)" xlink:href="#bq" />
				<use transform="matrix(0.05,0,0,0.05,32.95,0)" xlink:href="#bi" />
				<use transform="matrix(0.05,0,0,0.05,41.95,0)" xlink:href="#bw" />
				<use transform="matrix(0.05,0,0,0.05,51.95,0)" xlink:href="#bg" />
				<use transform="matrix(0.05,0,0,0.05,66.9,0)" xlink:href="#aW" />
				<use transform="matrix(0.05,0,0,0.05,76.9,0)" xlink:href="#aV" />
			</g>
			<path fill="#3a414a" d="M118-107v75H92v-75H18v-26h74v-75h26v75h74v26h-74" id="bx" />
			<path fill="#3a414a" d="M127-220V0H93v-220H8v-28h204v28h-85" id="by" />
			<path fill="#3a414a" d="M197 0v-115H63V0H30v-248h33v105h134v-105h34V0h-34" id="bz" />
			<path fill="#3a414a" d="M30 0v-248h187v28H63v79h144v27H63v87h162V0H30" id="bA" />
			<path fill="#3a414a"
				d="M205 0l-28-72H64L36 0H1l101-248h38L239 0h-34zm-38-99l-47-123c-12 45-31 82-46 123h93"
				id="bB" />
			<path fill="#3a414a" d="M-5 72V49h209v23H-5" id="bC" />
			<path fill="#3a414a"
				d="M140-251c81 0 123 46 123 126C263-46 219 4 140 4 59 4 17-45 17-125s42-126 123-126zm0 227c63 0 89-41 89-101s-29-99-89-99c-61 0-89 39-89 99S79-25 140-24"
				id="bD" />
			<path fill="#3a414a"
				d="M185-189c-5-48-123-54-124 2 14 75 158 14 163 119 3 78-121 87-175 55-17-10-28-26-33-46l33-7c5 56 141 63 141-1 0-78-155-14-162-118-5-82 145-84 179-34 5 7 8 16 11 25"
				id="bE" />
			<path fill="#3a414a" d="M33 0v-248h34V0H33" id="bF" />
			<path fill="#3a414a" d="M209 0H11v-25l151-195H24v-28h176v25L50-27h159V0" id="bG" />
			<g id="B">
				<use transform="matrix(0.03765432098765432,0,0,0.03765432098765432,0,0)"
					xlink:href="#bx" />
				<use
					transform="matrix(0.03765432098765432,0,0,0.03765432098765432,7.9074074074074066,0)"
					xlink:href="#by" />
				<use
					transform="matrix(0.03765432098765432,0,0,0.03765432098765432,16.1537037037037,0)"
					xlink:href="#bz" />
				<use
					transform="matrix(0.03765432098765432,0,0,0.03765432098765432,25.90617283950617,0)"
					xlink:href="#bs" />
				<use
					transform="matrix(0.03765432098765432,0,0,0.03765432098765432,35.65864197530864,0)"
					xlink:href="#bA" />
				<use
					transform="matrix(0.03765432098765432,0,0,0.03765432098765432,44.69567901234568,0)"
					xlink:href="#bB" />
				<use
					transform="matrix(0.03765432098765432,0,0,0.03765432098765432,53.73271604938272,0)"
					xlink:href="#aT" />
				<use
					transform="matrix(0.03765432098765432,0,0,0.03765432098765432,63.48518518518519,0)"
					xlink:href="#bC" />
				<use
					transform="matrix(0.03765432098765432,0,0,0.03765432098765432,71.01604938271605,0)"
					xlink:href="#be" />
				<use
					transform="matrix(0.03765432098765432,0,0,0.03765432098765432,80.05308641975309,0)"
					xlink:href="#bD" />
				<use
					transform="matrix(0.03765432098765432,0,0,0.03765432098765432,90.59629629629629,0)"
					xlink:href="#bD" />
				<use
					transform="matrix(0.03765432098765432,0,0,0.03765432098765432,101.1395061728395,0)"
					xlink:href="#bp" />
				<use
					transform="matrix(0.03765432098765432,0,0,0.03765432098765432,108.67037037037036,0)"
					xlink:href="#bC" />
				<use
					transform="matrix(0.03765432098765432,0,0,0.03765432098765432,116.20123456790122,0)"
					xlink:href="#bE" />
				<use
					transform="matrix(0.03765432098765432,0,0,0.03765432098765432,125.23827160493826,0)"
					xlink:href="#bF" />
				<use
					transform="matrix(0.03765432098765432,0,0,0.03765432098765432,129.0037037037037,0)"
					xlink:href="#bG" />
				<use transform="matrix(0.03765432098765432,0,0,0.03765432098765432,137.25,0)"
					xlink:href="#bA" />
			</g>
			<g id="C">
				<use transform="matrix(0.03765432098765432,0,0,0.03765432098765432,0,0)"
					xlink:href="#bg" />
				<use
					transform="matrix(0.03765432098765432,0,0,0.03765432098765432,11.258641975308642,0)"
					xlink:href="#aZ" />
				<use
					transform="matrix(0.03765432098765432,0,0,0.03765432098765432,18.789506172839506,0)"
					xlink:href="#aV" />
				<use
					transform="matrix(0.03765432098765432,0,0,0.03765432098765432,23.27037037037037,0)"
					xlink:href="#aW" />
			</g>
			<path fill="#3a414a" d="M33 0v-38h34V0H33" id="bH" />
			<g id="D">
				<use transform="matrix(0.03765432098765432,0,0,0.03765432098765432,0,0)"
					xlink:href="#bh" />
				<use
					transform="matrix(0.03765432098765432,0,0,0.03765432098765432,9.752469135802468,0)"
					xlink:href="#aZ" />
				<use
					transform="matrix(0.03765432098765432,0,0,0.03765432098765432,17.28333333333333,0)"
					xlink:href="#bq" />
				<use
					transform="matrix(0.03765432098765432,0,0,0.03765432098765432,24.814197530864195,0)"
					xlink:href="#bi" />
				<use
					transform="matrix(0.03765432098765432,0,0,0.03765432098765432,31.591975308641974,0)"
					xlink:href="#bw" />
				<use
					transform="matrix(0.03765432098765432,0,0,0.03765432098765432,39.12283950617284,0)"
					xlink:href="#bg" />
				<use
					transform="matrix(0.03765432098765432,0,0,0.03765432098765432,50.38148148148148,0)"
					xlink:href="#aW" />
				<use
					transform="matrix(0.03765432098765432,0,0,0.03765432098765432,57.91234567901235,0)"
					xlink:href="#aV" />
				<use
					transform="matrix(0.03765432098765432,0,0,0.03765432098765432,61.64012345679012,0)"
					xlink:href="#bH" />
			</g>
			<g id="E">
				<use transform="matrix(0.03765432098765432,0,0,0.03765432098765432,0,0)"
					xlink:href="#aT" />
				<use
					transform="matrix(0.03765432098765432,0,0,0.03765432098765432,9.752469135802468,0)"
					xlink:href="#aW" />
				<use
					transform="matrix(0.03765432098765432,0,0,0.03765432098765432,17.28333333333333,0)"
					xlink:href="#aX" />
				<use
					transform="matrix(0.03765432098765432,0,0,0.03765432098765432,24.06111111111111,0)"
					xlink:href="#bk" />
				<use
					transform="matrix(0.03765432098765432,0,0,0.03765432098765432,27.035802469135803,0)"
					xlink:href="#bc" />
				<use
					transform="matrix(0.03765432098765432,0,0,0.03765432098765432,34.56666666666666,0)"
					xlink:href="#aV" />
				<use
					transform="matrix(0.03765432098765432,0,0,0.03765432098765432,39.047530864197526,0)"
					xlink:href="#aW" />
				<use
					transform="matrix(0.03765432098765432,0,0,0.03765432098765432,46.57839506172838,0)"
					xlink:href="#bl" />
			</g>
			<g id="F">
				<use transform="matrix(0.03765432098765432,0,0,0.03765432098765432,0,0)"
					xlink:href="#aU" />
				<use
					transform="matrix(0.03765432098765432,0,0,0.03765432098765432,2.974691358024691,0)"
					xlink:href="#bq" />
			</g>
			<path fill="#3a414a"
				d="M115-194c55 1 70 41 70 98S169 2 115 4C84 4 66-9 55-30l1 105H24l-1-265h31l2 30c10-21 28-34 59-34zm-8 174c40 0 45-34 45-75s-6-73-45-74c-42 0-51 32-51 76 0 43 10 73 51 73"
				id="bI" />
			<path fill="#3a414a"
				d="M24-231v-30h32v30H24zM-9 49c24 4 33-6 33-30v-209h32V24c2 40-23 58-65 49V49"
				id="bJ" />
			<path fill="#3a414a" d="M108 0H70L1-190h34L89-25l56-165h34" id="bK" />
			<g id="G">
				<use transform="matrix(0.03765432098765432,0,0,0.03765432098765432,0,0)"
					xlink:href="#bB" />
				<use
					transform="matrix(0.03765432098765432,0,0,0.03765432098765432,9.037037037037036,0)"
					xlink:href="#bI" />
				<use
					transform="matrix(0.03765432098765432,0,0,0.03765432098765432,16.5679012345679,0)"
					xlink:href="#bI" />
				<use
					transform="matrix(0.03765432098765432,0,0,0.03765432098765432,24.098765432098762,0)"
					xlink:href="#bH" />
				<use
					transform="matrix(0.03765432098765432,0,0,0.03765432098765432,27.864197530864196,0)"
					xlink:href="#bJ" />
				<use
					transform="matrix(0.03765432098765432,0,0,0.03765432098765432,30.83888888888889,0)"
					xlink:href="#bc" />
				<use
					transform="matrix(0.03765432098765432,0,0,0.03765432098765432,38.36975308641975,0)"
					xlink:href="#bK" />
				<use
					transform="matrix(0.03765432098765432,0,0,0.03765432098765432,45.14753086419753,0)"
					xlink:href="#bc" />
				<path fill="#8080ff" d="M-.68.94h54.03v1H-.68z" />
			</g>
			<g id="H">
				<use transform="matrix(0.05,0,0,0.05,0,0)" xlink:href="#bs" />
				<use transform="matrix(0.05,0,0,0.05,12.950000000000001,0)" xlink:href="#aW" />
				<use transform="matrix(0.05,0,0,0.05,22.950000000000003,0)" xlink:href="#bc" />
				<use transform="matrix(0.05,0,0,0.05,32.95,0)" xlink:href="#bl" />
				<use transform="matrix(0.05,0,0,0.05,42.95,0)" xlink:href="#bi" />
			</g>
			<g id="I">
				<use transform="matrix(0.05,0,0,0.05,0,0)" xlink:href="#bk" />
				<use transform="matrix(0.05,0,0,0.05,3.95,0)" xlink:href="#aZ" />
				<use transform="matrix(0.05,0,0,0.05,13.949999999999998,0)" xlink:href="#bf" />
				<use transform="matrix(0.05,0,0,0.05,23.95,0)" xlink:href="#bi" />
			</g>
			<g id="J">
				<use transform="matrix(0.05,0,0,0.05,0,0)" xlink:href="#bj" />
				<use transform="matrix(0.05,0,0,0.05,5,0)" xlink:href="#aV" />
				<use transform="matrix(0.05,0,0,0.05,10.95,0)" xlink:href="#aZ" />
				<use transform="matrix(0.05,0,0,0.05,20.95,0)" xlink:href="#bg" />
			</g>
			<g id="K">
				<use transform="matrix(0.05,0,0,0.05,0,0)" xlink:href="#bp" />
				<use transform="matrix(0.05,0,0,0.05,10,0)" xlink:href="#aZ" />
				<use transform="matrix(0.05,0,0,0.05,20,0)" xlink:href="#bf" />
			</g>
			<g id="L">
				<use transform="matrix(0.05,0,0,0.05,0,0)" xlink:href="#bA" />
				<use transform="matrix(0.05,0,0,0.05,12,0)" xlink:href="#bq" />
				<use transform="matrix(0.05,0,0,0.05,22,0)" xlink:href="#aV" />
				<use transform="matrix(0.05,0,0,0.05,27.950000000000003,0)" xlink:href="#aU" />
				<use transform="matrix(0.05,0,0,0.05,31.899999999999995,0)" xlink:href="#aX" />
				<use transform="matrix(0.05,0,0,0.05,40.9,0)" xlink:href="#bd" />
				<use transform="matrix(0.05,0,0,0.05,50.9,0)" xlink:href="#aU" />
				<use transform="matrix(0.05,0,0,0.05,54.85,0)" xlink:href="#bq" />
				<use transform="matrix(0.05,0,0,0.05,64.85,0)" xlink:href="#bf" />
			</g>
			<g id="M">
				<use transform="matrix(0.05,0,0,0.05,0,0)" xlink:href="#aT" />
				<use transform="matrix(0.05,0,0,0.05,12.950000000000001,0)" xlink:href="#aZ" />
				<use transform="matrix(0.05,0,0,0.05,22.950000000000003,0)" xlink:href="#aW" />
				<use transform="matrix(0.05,0,0,0.05,32.95,0)" xlink:href="#bi" />
			</g>
			<g id="N">
				<use transform="matrix(0.05,0,0,0.05,0,0)" xlink:href="#aY" />
				<use transform="matrix(0.05,0,0,0.05,5,0)" xlink:href="#bd" />
				<use transform="matrix(0.05,0,0,0.05,15,0)" xlink:href="#aW" />
			</g>
			<g id="O">
				<use transform="matrix(0.05,0,0,0.05,0,0)" xlink:href="#bI" />
				<use transform="matrix(0.05,0,0,0.05,10,0)" xlink:href="#aV" />
				<use transform="matrix(0.05,0,0,0.05,15.949999999999998,0)" xlink:href="#aZ" />
				<use transform="matrix(0.05,0,0,0.05,25.950000000000003,0)" xlink:href="#aX" />
				<use transform="matrix(0.05,0,0,0.05,34.95,0)" xlink:href="#aW" />
				<use transform="matrix(0.05,0,0,0.05,44.95,0)" xlink:href="#bi" />
				<use transform="matrix(0.05,0,0,0.05,53.95,0)" xlink:href="#bi" />
			</g>
			<g id="P">
				<use transform="matrix(0.05,0,0,0.05,0,0)" xlink:href="#bA" />
				<use transform="matrix(0.05,0,0,0.05,12,0)" xlink:href="#bk" />
				<use transform="matrix(0.05,0,0,0.05,15.949999999999998,0)" xlink:href="#bc" />
				<use transform="matrix(0.05,0,0,0.05,25.950000000000003,0)" xlink:href="#bi" />
				<use transform="matrix(0.05,0,0,0.05,34.95,0)" xlink:href="#aY" />
				<use transform="matrix(0.05,0,0,0.05,39.95,0)" xlink:href="#aU" />
				<use transform="matrix(0.05,0,0,0.05,43.900000000000006,0)" xlink:href="#aX" />
				<use transform="matrix(0.05,0,0,0.05,52.900000000000006,0)" xlink:href="#bi" />
				<use transform="matrix(0.05,0,0,0.05,61.900000000000006,0)" xlink:href="#aW" />
				<use transform="matrix(0.05,0,0,0.05,71.9,0)" xlink:href="#bc" />
				<use transform="matrix(0.05,0,0,0.05,81.9,0)" xlink:href="#aV" />
				<use transform="matrix(0.05,0,0,0.05,87.85000000000001,0)" xlink:href="#aX" />
				<use transform="matrix(0.05,0,0,0.05,96.85000000000001,0)" xlink:href="#bd" />
			</g>
			<path fill="#3a414a"
				d="M141 0L90-78 38 0H4l68-98-65-92h35l48 74 47-74h35l-64 92 68 98h-35" id="bL" />
			<g id="Q">
				<use transform="matrix(0.05,0,0,0.05,0,0)" xlink:href="#bF" />
				<use transform="matrix(0.05,0,0,0.05,5,0)" xlink:href="#bq" />
				<use transform="matrix(0.05,0,0,0.05,15,0)" xlink:href="#bl" />
				<use transform="matrix(0.05,0,0,0.05,25,0)" xlink:href="#aW" />
				<use transform="matrix(0.05,0,0,0.05,35,0)" xlink:href="#bL" />
				<use transform="matrix(0.05,0,0,0.05,44,0)" xlink:href="#aW" />
				<use transform="matrix(0.05,0,0,0.05,54,0)" xlink:href="#bi" />
			</g>
			<g id="R">
				<use transform="matrix(0.05,0,0,0.05,0,0)" xlink:href="#bk" />
				<use transform="matrix(0.05,0,0,0.05,3.95,0)" xlink:href="#aZ" />
				<use transform="matrix(0.05,0,0,0.05,13.949999999999998,0)" xlink:href="#bf" />
			</g>
			<g id="S">
				<use transform="matrix(0.05,0,0,0.05,0,0)" xlink:href="#aY" />
				<use transform="matrix(0.05,0,0,0.05,5,0)" xlink:href="#aZ" />
			</g>
			<g id="T">
				<use transform="matrix(0.03765432098765432,0,0,0.03765432098765432,0,0)"
					xlink:href="#bx" />
				<use
					transform="matrix(0.03765432098765432,0,0,0.03765432098765432,7.9074074074074066,0)"
					xlink:href="#bq" />
			</g>
			<g id="U">
				<use transform="matrix(0.03765432098765432,0,0,0.03765432098765432,0,0)"
					xlink:href="#aT" />
				<use
					transform="matrix(0.03765432098765432,0,0,0.03765432098765432,9.752469135802468,0)"
					xlink:href="#aU" />
				<use
					transform="matrix(0.03765432098765432,0,0,0.03765432098765432,12.72716049382716,0)"
					xlink:href="#aV" />
				<use
					transform="matrix(0.03765432098765432,0,0,0.03765432098765432,17.208024691358023,0)"
					xlink:href="#aW" />
				<use
					transform="matrix(0.03765432098765432,0,0,0.03765432098765432,24.738888888888887,0)"
					xlink:href="#aX" />
				<use
					transform="matrix(0.03765432098765432,0,0,0.03765432098765432,31.516666666666662,0)"
					xlink:href="#aY" />
				<use
					transform="matrix(0.03765432098765432,0,0,0.03765432098765432,35.282098765432096,0)"
					xlink:href="#aZ" />
				<use
					transform="matrix(0.03765432098765432,0,0,0.03765432098765432,42.812962962962956,0)"
					xlink:href="#aV" />
				<use
					transform="matrix(0.03765432098765432,0,0,0.03765432098765432,47.29382716049382,0)"
					xlink:href="#ba" />
				<use
					transform="matrix(0.03765432098765432,0,0,0.03765432098765432,54.0716049382716,0)"
					xlink:href="#bb" />
				<use
					transform="matrix(0.03765432098765432,0,0,0.03765432098765432,66.3469135802469,0)"
					xlink:href="#bc" />
				<use
					transform="matrix(0.03765432098765432,0,0,0.03765432098765432,73.87777777777777,0)"
					xlink:href="#aY" />
				<use
					transform="matrix(0.03765432098765432,0,0,0.03765432098765432,77.6432098765432,0)"
					xlink:href="#aX" />
				<use
					transform="matrix(0.03765432098765432,0,0,0.03765432098765432,84.42098765432097,0)"
					xlink:href="#bd" />
				<use
					transform="matrix(0.03765432098765432,0,0,0.03765432098765432,91.95185185185183,0)"
					xlink:href="#aW" />
				<use
					transform="matrix(0.03765432098765432,0,0,0.03765432098765432,99.48271604938269,0)"
					xlink:href="#aV" />
				<use
					transform="matrix(0.03765432098765432,0,0,0.03765432098765432,103.21049382716046,0)"
					xlink:href="#bH" />
			</g>
			<g id="V">
				<use transform="matrix(0.03765432098765432,0,0,0.03765432098765432,0,0)"
					xlink:href="#bh" />
				<use
					transform="matrix(0.03765432098765432,0,0,0.03765432098765432,9.752469135802468,0)"
					xlink:href="#aV" />
				<use
					transform="matrix(0.03765432098765432,0,0,0.03765432098765432,14.23333333333333,0)"
					xlink:href="#aW" />
				<use
					transform="matrix(0.03765432098765432,0,0,0.03765432098765432,21.764197530864195,0)"
					xlink:href="#bc" />
				<use
					transform="matrix(0.03765432098765432,0,0,0.03765432098765432,29.29506172839506,0)"
					xlink:href="#aY" />
				<use
					transform="matrix(0.03765432098765432,0,0,0.03765432098765432,33.06049382716049,0)"
					xlink:href="#aW" />
				<use
					transform="matrix(0.03765432098765432,0,0,0.03765432098765432,40.59135802469136,0)"
					xlink:href="#bl" />
			</g>
			<g id="W">
				<use transform="matrix(0.03765432098765432,0,0,0.03765432098765432,0,0)"
					xlink:href="#bj" />
				<use
					transform="matrix(0.03765432098765432,0,0,0.03765432098765432,3.765432098765432,0)"
					xlink:href="#aZ" />
				<use
					transform="matrix(0.03765432098765432,0,0,0.03765432098765432,11.296296296296296,0)"
					xlink:href="#aV" />
			</g>
			<g id="X">
				<use transform="matrix(0.03765432098765432,0,0,0.03765432098765432,0,0)"
					xlink:href="#aW" />
				<use
					transform="matrix(0.03765432098765432,0,0,0.03765432098765432,7.530864197530864,0)"
					xlink:href="#bc" />
				<use
					transform="matrix(0.03765432098765432,0,0,0.03765432098765432,15.061728395061728,0)"
					xlink:href="#aX" />
				<use
					transform="matrix(0.03765432098765432,0,0,0.03765432098765432,21.83950617283951,0)"
					xlink:href="#bd" />
			</g>
			<g id="Y">
				<use transform="matrix(0.03765432098765432,0,0,0.03765432098765432,0,0)"
					xlink:href="#bl" />
				<use
					transform="matrix(0.03765432098765432,0,0,0.03765432098765432,7.530864197530864,0)"
					xlink:href="#aU" />
				<use
					transform="matrix(0.03765432098765432,0,0,0.03765432098765432,10.505555555555555,0)"
					xlink:href="#aV" />
				<use
					transform="matrix(0.03765432098765432,0,0,0.03765432098765432,14.986419753086421,0)"
					xlink:href="#aW" />
				<use
					transform="matrix(0.03765432098765432,0,0,0.03765432098765432,22.517283950617283,0)"
					xlink:href="#aX" />
				<use
					transform="matrix(0.03765432098765432,0,0,0.03765432098765432,29.295061728395062,0)"
					xlink:href="#aY" />
				<use
					transform="matrix(0.03765432098765432,0,0,0.03765432098765432,33.06049382716049,0)"
					xlink:href="#aZ" />
				<use
					transform="matrix(0.03765432098765432,0,0,0.03765432098765432,40.59135802469136,0)"
					xlink:href="#aV" />
				<use
					transform="matrix(0.03765432098765432,0,0,0.03765432098765432,45.07222222222223,0)"
					xlink:href="#ba" />
				<use
					transform="matrix(0.03765432098765432,0,0,0.03765432098765432,50.833333333333336,0)"
					xlink:href="#bH" />
			</g>
			<g id="Z">
				<use transform="matrix(0.03765432098765432,0,0,0.03765432098765432,0,0)"
					xlink:href="#bp" />
				<use
					transform="matrix(0.03765432098765432,0,0,0.03765432098765432,7.530864197530864,0)"
					xlink:href="#aZ" />
				<use
					transform="matrix(0.03765432098765432,0,0,0.03765432098765432,15.061728395061728,0)"
					xlink:href="#bf" />
			</g>
			<g id="aa">
				<use transform="matrix(0.03765432098765432,0,0,0.03765432098765432,0,0)"
					xlink:href="#bj" />
				<use
					transform="matrix(0.03765432098765432,0,0,0.03765432098765432,3.765432098765432,0)"
					xlink:href="#aU" />
				<use
					transform="matrix(0.03765432098765432,0,0,0.03765432098765432,6.740123456790123,0)"
					xlink:href="#bk" />
				<use
					transform="matrix(0.03765432098765432,0,0,0.03765432098765432,9.714814814814813,0)"
					xlink:href="#aW" />
				<use
					transform="matrix(0.03765432098765432,0,0,0.03765432098765432,17.245679012345676,0)"
					xlink:href="#bH" />
			</g>
			<g id="ab">
				<use transform="matrix(0.03765432098765432,0,0,0.03765432098765432,0,0)"
					xlink:href="#bh" />
				<use
					transform="matrix(0.03765432098765432,0,0,0.03765432098765432,9.752469135802468,0)"
					xlink:href="#bc" />
				<use
					transform="matrix(0.03765432098765432,0,0,0.03765432098765432,17.28333333333333,0)"
					xlink:href="#bq" />
			</g>
			<g id="ac">
				<use transform="matrix(0.03765432098765432,0,0,0.03765432098765432,0,0)"
					xlink:href="#bt" />
				<use
					transform="matrix(0.03765432098765432,0,0,0.03765432098765432,7.530864197530864,0)"
					xlink:href="#aW" />
			</g>
			<g id="ad">
				<use transform="matrix(0.03765432098765432,0,0,0.03765432098765432,0,0)"
					xlink:href="#aX" />
				<use
					transform="matrix(0.03765432098765432,0,0,0.03765432098765432,6.777777777777777,0)"
					xlink:href="#aV" />
				<use
					transform="matrix(0.03765432098765432,0,0,0.03765432098765432,11.258641975308642,0)"
					xlink:href="#aW" />
				<use
					transform="matrix(0.03765432098765432,0,0,0.03765432098765432,18.789506172839506,0)"
					xlink:href="#bc" />
				<use
					transform="matrix(0.03765432098765432,0,0,0.03765432098765432,26.32037037037037,0)"
					xlink:href="#aY" />
				<use
					transform="matrix(0.03765432098765432,0,0,0.03765432098765432,30.0858024691358,0)"
					xlink:href="#aW" />
				<use
					transform="matrix(0.03765432098765432,0,0,0.03765432098765432,37.61666666666666,0)"
					xlink:href="#bl" />
			</g>
			<g id="ae">
				<use transform="matrix(0.03765432098765432,0,0,0.03765432098765432,0,0)"
					xlink:href="#bq" />
				<use
					transform="matrix(0.03765432098765432,0,0,0.03765432098765432,7.530864197530864,0)"
					xlink:href="#bw" />
				<use
					transform="matrix(0.03765432098765432,0,0,0.03765432098765432,15.061728395061728,0)"
					xlink:href="#bg" />
				<use
					transform="matrix(0.03765432098765432,0,0,0.03765432098765432,26.32037037037037,0)"
					xlink:href="#aW" />
				<use
					transform="matrix(0.03765432098765432,0,0,0.03765432098765432,33.85123456790123,0)"
					xlink:href="#aV" />
				<use
					transform="matrix(0.03765432098765432,0,0,0.03765432098765432,38.33209876543209,0)"
					xlink:href="#aZ" />
				<use
					transform="matrix(0.03765432098765432,0,0,0.03765432098765432,45.86296296296295,0)"
					xlink:href="#bw" />
				<use
					transform="matrix(0.03765432098765432,0,0,0.03765432098765432,53.393827160493814,0)"
					xlink:href="#bi" />
			</g>
			<g id="af">
				<use transform="matrix(0.03765432098765432,0,0,0.03765432098765432,0,0)"
					xlink:href="#aY" />
				<use
					transform="matrix(0.03765432098765432,0,0,0.03765432098765432,3.765432098765432,0)"
					xlink:href="#aU" />
				<use
					transform="matrix(0.03765432098765432,0,0,0.03765432098765432,6.740123456790123,0)"
					xlink:href="#bg" />
				<use
					transform="matrix(0.03765432098765432,0,0,0.03765432098765432,17.998765432098764,0)"
					xlink:href="#aW" />
				<use
					transform="matrix(0.03765432098765432,0,0,0.03765432098765432,25.52962962962963,0)"
					xlink:href="#bi" />
			</g>
			<g id="ag">
				<use transform="matrix(0.03765432098765432,0,0,0.03765432098765432,0,0)"
					xlink:href="#bb" />
				<use
					transform="matrix(0.03765432098765432,0,0,0.03765432098765432,12.275308641975307,0)"
					xlink:href="#bc" />
				<use
					transform="matrix(0.03765432098765432,0,0,0.03765432098765432,19.80617283950617,0)"
					xlink:href="#aY" />
				<use
					transform="matrix(0.03765432098765432,0,0,0.03765432098765432,23.57160493827161,0)"
					xlink:href="#aX" />
				<use
					transform="matrix(0.03765432098765432,0,0,0.03765432098765432,30.349382716049384,0)"
					xlink:href="#bd" />
				<use
					transform="matrix(0.03765432098765432,0,0,0.03765432098765432,37.88024691358025,0)"
					xlink:href="#aW" />
				<use
					transform="matrix(0.03765432098765432,0,0,0.03765432098765432,45.41111111111112,0)"
					xlink:href="#aV" />
				<use
					transform="matrix(0.03765432098765432,0,0,0.03765432098765432,49.138888888888886,0)"
					xlink:href="#bH" />
			</g>
			<g id="ah">
				<use transform="matrix(0.03765432098765432,0,0,0.03765432098765432,0,0)"
					xlink:href="#bB" />
				<use
					transform="matrix(0.03765432098765432,0,0,0.03765432098765432,9.037037037037036,0)"
					xlink:href="#bw" />
				<use
					transform="matrix(0.03765432098765432,0,0,0.03765432098765432,16.5679012345679,0)"
					xlink:href="#aY" />
				<use
					transform="matrix(0.03765432098765432,0,0,0.03765432098765432,20.33333333333333,0)"
					xlink:href="#aZ" />
				<use
					transform="matrix(0.03765432098765432,0,0,0.03765432098765432,27.86419753086419,0)"
					xlink:href="#bg" />
				<use
					transform="matrix(0.03765432098765432,0,0,0.03765432098765432,39.12283950617284,0)"
					xlink:href="#bc" />
				<use
					transform="matrix(0.03765432098765432,0,0,0.03765432098765432,46.6537037037037,0)"
					xlink:href="#aY" />
				<use
					transform="matrix(0.03765432098765432,0,0,0.03765432098765432,50.41913580246913,0)"
					xlink:href="#aU" />
				<use
					transform="matrix(0.03765432098765432,0,0,0.03765432098765432,53.39382716049382,0)"
					xlink:href="#aX" />
				<use
					transform="matrix(0.03765432098765432,0,0,0.03765432098765432,60.1716049382716,0)"
					xlink:href="#bc" />
				<use
					transform="matrix(0.03765432098765432,0,0,0.03765432098765432,67.70246913580246,0)"
					xlink:href="#bk" />
				<use
					transform="matrix(0.03765432098765432,0,0,0.03765432098765432,70.67716049382715,0)"
					xlink:href="#bk" />
				<use
					transform="matrix(0.03765432098765432,0,0,0.03765432098765432,73.65185185185183,0)"
					xlink:href="#ba" />
			</g>
			<g id="ai">
				<use transform="matrix(0.03765432098765432,0,0,0.03765432098765432,0,0)"
					xlink:href="#bk" />
				<use
					transform="matrix(0.03765432098765432,0,0,0.03765432098765432,2.974691358024691,0)"
					xlink:href="#aZ" />
				<use
					transform="matrix(0.03765432098765432,0,0,0.03765432098765432,10.505555555555555,0)"
					xlink:href="#bf" />
			</g>
			<g id="aj">
				<use transform="matrix(0.03765432098765432,0,0,0.03765432098765432,0,0)"
					xlink:href="#bj" />
				<use
					transform="matrix(0.03765432098765432,0,0,0.03765432098765432,3.765432098765432,0)"
					xlink:href="#aU" />
				<use
					transform="matrix(0.03765432098765432,0,0,0.03765432098765432,6.740123456790123,0)"
					xlink:href="#bk" />
				<use
					transform="matrix(0.03765432098765432,0,0,0.03765432098765432,9.714814814814813,0)"
					xlink:href="#aW" />
			</g>
		</defs>
	</g>
</svg>